<svg width="620" height="640" viewBox="0 0 620 640" fill="none" xmlns="http://www.w3.org/2000/svg">
<g clip-path="url(#clip0_28_5410)">
<path fill-rule="evenodd" clip-rule="evenodd" d="M306.5 27.5C306.5 27.8333 306.5 28.1667 306.5 28.5C285.164 28.3334 263.831 28.5 242.5 29C240.922 30.0945 239.255 30.9278 237.5 31.5C238.343 29.8267 239.676 28.66 241.5 28C263.164 27.5 284.831 27.3334 306.5 27.5Z" fill="#50565C"/>
<path fill-rule="evenodd" clip-rule="evenodd" d="M306.5 28.5C306.5 28.1667 306.5 27.8333 306.5 27.5C372.834 27.3333 439.168 27.5 505.5 28C506.672 28.4186 507.672 29.0853 508.5 30C441.328 28.5139 373.995 28.0139 306.5 28.5Z" fill="#83878B"/>
<path fill-rule="evenodd" clip-rule="evenodd" d="M510.501 33.5C511.223 33.9175 511.723 34.5842 512.001 35.5C512.668 115.167 512.668 194.833 512.001 274.5C510.622 194.174 510.122 113.841 510.501 33.5Z" fill="#C1C3C5"/>
<path fill-rule="evenodd" clip-rule="evenodd" d="M237.5 31.5C237.291 32.9217 236.791 34.255 236 35.5C235.342 116.887 235.342 198.221 236 279.5C234.339 197.915 234.006 116.248 235 34.5C235.377 33.0577 236.21 32.0577 237.5 31.5Z" fill="#494F55"/>
<path fill-rule="evenodd" clip-rule="evenodd" d="M248.5 41.5C255.676 40.9846 257.342 43.8179 253.5 50C249.229 51.5126 246.895 50.0126 246.5 45.5C246.752 43.9271 247.418 42.5938 248.5 41.5Z" fill="#274C77"/>
<path fill-rule="evenodd" clip-rule="evenodd" d="M262.5 41.5C269.676 40.9846 271.342 43.8179 267.5 50C263.229 51.5126 260.895 50.0126 260.5 45.5C260.752 43.9271 261.418 42.5938 262.5 41.5Z" fill="#274C77"/>
<path fill-rule="evenodd" clip-rule="evenodd" d="M276.498 41.5C283.47 41.2794 285.136 44.1128 281.498 50C274.414 50.475 272.747 47.6417 276.498 41.5Z" fill="#274C77"/>
<path fill-rule="evenodd" clip-rule="evenodd" d="M241.5 59.5001C319.999 58.3345 398.666 58.1678 477.5 59.0001C398.834 60.4706 320.167 60.6372 241.5 59.5001Z" fill="#A8ABAE"/>
<path d="M396 103.5C396 93.2827 387.717 85 377.5 85C367.283 85 359 93.2827 359 103.5L359 120H358C355.239 120 353 122.239 353 125V148C353 150.761 355.239 153 358 153H397C399.761 153 402 150.761 402 148V125C402 122.239 399.761 120 397 120H396L396 103.5Z" fill="#274C77"/>
<path d="M379.036 143.962C380.199 143.366 381 142.114 381 140.667C381 138.642 379.433 137 377.5 137C375.567 137 374 138.642 374 140.667C374 142.153 374.844 143.432 376.056 144.008C376.065 144.082 376.073 144.158 376.082 144.233V144.236C376.235 145.601 376.414 147.199 376.271 149H378.816C378.673 147.198 378.853 145.599 379.006 144.233C379.016 144.142 379.026 144.052 379.036 143.962Z" fill="white"/>
<path d="M375.512 89C369.88 89 365.284 93.4331 365.023 99H365.012V120H391.012V99H391C390.739 93.4331 386.143 89 380.512 89H375.512Z" fill="white"/>
<path fill-rule="evenodd" clip-rule="evenodd" d="M426.5 87.5C427.5 87.5 428.5 87.5 429.5 87.5C429.5 88.5 429.5 89.5 429.5 90.5C428.5 90.5 427.5 90.5 426.5 90.5C426.5 89.5 426.5 88.5 426.5 87.5Z" fill="#274C77"/>
<path fill-rule="evenodd" clip-rule="evenodd" d="M135.501 178.5C136.243 172.51 136.41 166.51 136.001 160.5C132.836 154.166 129.17 148.166 125.001 142.5C122.796 145.04 120.296 147.207 117.501 149C112.528 149.805 107.695 150.972 103.001 152.5C101.69 154.955 100.523 157.455 99.5011 160C103.029 160.089 106.363 160.756 109.501 162C105.776 162.76 102.109 162.593 98.5011 161.5C94.5723 162.86 90.7389 164.527 87.0011 166.5C86.3397 170.007 84.5063 172.674 81.5011 174.5C71.6905 170.415 67.0239 173.748 67.5011 184.5C64.7701 180.678 63.4367 176.344 63.5011 171.5C63.8215 168.102 63.4881 164.768 62.5011 161.5C61.8944 161.624 61.5611 161.957 61.5011 162.5C58.8138 162.664 56.1471 162.497 53.5011 162C55.5011 160 57.5011 158 59.5011 156C48.3444 154.012 46.6777 149.012 54.5011 141C51.8344 138.667 51.8344 136.333 54.5011 134C62.4133 129.863 69.4133 131.03 75.5011 137.5C84.7546 128.535 95.7546 124.701 108.501 126C124.455 128.376 135.622 136.876 142.001 151.5C144.035 161.692 141.869 170.692 135.501 178.5Z" fill="#10171F"/>
<path fill-rule="evenodd" clip-rule="evenodd" d="M135.502 178.5C133.642 187.633 131.142 196.633 128.002 205.5C123.585 212.775 117.418 217.775 109.502 220.5C109.502 223.167 109.502 225.833 109.502 228.5C107.642 239.114 101.308 243.281 90.502 241C82.4022 237.731 76.4022 232.231 72.502 224.5C72.502 213.833 72.502 203.167 72.502 192.5C74.6003 193.914 75.6003 193.248 75.502 190.5C73.7859 190.371 72.1192 190.038 70.502 189.5C69.1123 188.101 68.1123 186.434 67.502 184.5C67.0248 173.748 71.6914 170.415 81.502 174.5C84.5072 172.674 86.3406 170.007 87.002 166.5C90.7398 164.527 94.5732 162.86 98.502 161.5C102.11 162.593 105.777 162.76 109.502 162C106.364 160.756 103.03 160.089 99.502 160C100.524 157.455 101.69 154.955 103.002 152.5C107.696 150.972 112.529 149.805 117.502 149C120.297 147.207 122.797 145.04 125.002 142.5C129.171 148.166 132.837 154.166 136.002 160.5C136.411 166.51 136.244 172.51 135.502 178.5Z" fill="#F8A383"/>
<path fill-rule="evenodd" clip-rule="evenodd" d="M69.5 142.5C70.0431 142.56 70.3764 142.893 70.5 143.5C67.6539 147.881 65.4873 152.548 64 157.5C64.3357 151.997 66.169 146.997 69.5 142.5Z" fill="#2B4076"/>
<path fill-rule="evenodd" clip-rule="evenodd" d="M327.501 146.5C330.862 147.203 331.195 148.537 328.501 150.5C327.572 149.311 327.239 147.978 327.501 146.5Z" fill="#274C77"/>
<path fill-rule="evenodd" clip-rule="evenodd" d="M126.5 160.5C128.655 160.372 130.655 160.872 132.5 162C133.451 162.718 133.617 163.551 133 164.5C130.553 163.594 128.053 162.761 125.5 162C126.056 161.617 126.389 161.117 126.5 160.5Z" fill="#272427"/>
<path fill-rule="evenodd" clip-rule="evenodd" d="M61.5 162.5C61.56 161.957 61.8933 161.624 62.5 161.5C63.487 164.768 63.8204 168.102 63.5 171.5C62.8333 168.5 62.1667 165.5 61.5 162.5Z" fill="#63696D"/>
<path fill-rule="evenodd" clip-rule="evenodd" d="M101.5 166.5C103.655 166.372 105.655 166.872 107.5 168C105.167 168.667 102.833 168.667 100.5 168C101.056 167.617 101.389 167.117 101.5 166.5Z" fill="#624842"/>
<path fill-rule="evenodd" clip-rule="evenodd" d="M116.5 170.5C118.764 176.849 119.764 183.516 119.5 190.5C117.473 190.662 115.473 190.495 113.5 190C115.134 189.506 116.801 189.34 118.5 189.5C117.833 183.167 117.167 176.833 116.5 170.5Z" fill="#5E4640"/>
<path fill-rule="evenodd" clip-rule="evenodd" d="M124.5 172.5C127.356 171.102 130.022 171.602 132.5 174C129.979 173.27 127.313 172.77 124.5 172.5Z" fill="#413433"/>
<path fill-rule="evenodd" clip-rule="evenodd" d="M104.501 173.5C106.913 173.694 107.913 175.027 107.501 177.5C106.168 177.5 104.834 177.5 103.501 177.5C103.434 176.041 103.767 174.708 104.501 173.5Z" fill="#1A1C22"/>
<path fill-rule="evenodd" clip-rule="evenodd" d="M125.5 178.5C126.833 178.5 128.167 178.5 129.5 178.5C129.833 181.5 128.5 182.833 125.5 182.5C125.5 181.167 125.5 179.833 125.5 178.5Z" fill="#232126"/>
<path fill-rule="evenodd" clip-rule="evenodd" d="M373.499 179.5C387.185 179.356 392.685 186.023 389.999 199.5C384.687 207.932 377.521 209.765 368.499 205C360.77 194.59 362.436 186.09 373.499 179.5Z" fill="#F2F1EE"/>
<path fill-rule="evenodd" clip-rule="evenodd" d="M70.5 189.5C72.1172 190.038 73.7839 190.371 75.5 190.5C75.5983 193.248 74.5983 193.914 72.5 192.5C71.8333 191.5 71.1667 190.5 70.5 189.5Z" fill="#6E5148"/>
<path fill-rule="evenodd" clip-rule="evenodd" d="M105.5 190.5C106.41 193.793 108.41 196.293 111.5 198C106.606 197.621 104.606 195.121 105.5 190.5Z" fill="#342B2B"/>
<path fill-rule="evenodd" clip-rule="evenodd" d="M109.5 220.5C99.0392 221.702 91.8725 217.702 88 208.5C94.6773 213.746 101.844 217.746 109.5 220.5Z" fill="#FB8156"/>
<path fill-rule="evenodd" clip-rule="evenodd" d="M373.5 218.5C387.208 218.376 392.708 225.042 390 238.5C385.217 247.142 378.384 249.309 369.5 245C363.028 239.096 361.861 232.262 366 224.5C368.114 221.879 370.614 219.879 373.5 218.5Z" fill="#F2F1EE"/>
<path fill-rule="evenodd" clip-rule="evenodd" d="M72.5 224.5C76.4002 232.231 82.4002 237.731 90.5 241C101.307 243.281 107.64 239.114 109.5 228.5C115.809 229.728 122.142 230.895 128.5 232C132.538 232.899 136.205 234.566 139.5 237C148.808 246.449 155.808 257.282 160.5 269.5C154.971 274.519 149.138 279.185 143 283.5C142.501 288.823 142.334 294.156 142.5 299.5C141.4 316.992 140.734 334.659 140.5 352.5C137.484 354.671 134.318 356.671 131 358.5C109.283 350.872 87.4499 343.539 65.5 336.5C63.6455 318.871 62.3122 301.204 61.5 283.5C55.171 283.1 48.8376 282.767 42.5 282.5C37.0709 280.988 31.4042 280.321 25.5 280.5C24.4138 280.38 23.7472 279.713 23.5 278.5C24.6013 271.159 25.768 263.826 27 256.5C28.6262 248.914 31.6262 241.914 36 235.5C39.9676 232.098 44.4676 229.598 49.5 228C57.0683 226.119 64.735 224.953 72.5 224.5Z" fill="#0E151D"/>
<path fill-rule="evenodd" clip-rule="evenodd" d="M160.5 269.5C167.074 283.652 174.407 297.318 182.5 310.5C182.5 310.833 182.5 311.167 182.5 311.5C178.486 311.334 174.486 311.501 170.5 312C169.944 312.383 169.611 312.883 169.5 313.5C168.12 313.962 167.453 314.962 167.5 316.5C166.698 319.449 166.364 322.449 166.5 325.5C165.612 328.054 165.279 330.721 165.5 333.5C165.167 333.5 164.833 333.5 164.5 333.5C160.298 332.137 157.131 329.47 155 325.5C150.02 317.208 145.854 308.541 142.5 299.5C142.334 294.156 142.501 288.823 143 283.5C149.138 279.185 154.971 274.519 160.5 269.5Z" fill="#F9A485"/>
<path fill-rule="evenodd" clip-rule="evenodd" d="M42.5024 282.5C48.84 282.767 55.1733 283.1 61.5023 283.5C62.3145 301.204 63.6479 318.871 65.5023 336.5C87.4522 343.539 109.285 350.872 131.002 358.5C134.32 356.671 137.486 354.671 140.502 352.5C144.154 350.176 147.487 347.509 150.502 344.5C154.437 344.206 158.437 344.539 162.502 345.5C162.004 350.152 161.671 354.819 161.502 359.5C160.471 361.961 159.804 364.627 159.502 367.5C154.192 370.156 149.192 373.323 144.502 377C143.209 377.49 141.875 377.657 140.502 377.5C110.506 374.1 80.506 370.433 50.5024 366.5C48.0691 365.587 45.5691 364.587 43.0024 363.5C39.9634 356.42 36.6301 349.42 33.0024 342.5C31.6691 338.5 30.3357 334.5 29.0024 330.5C27.283 314.884 26.4497 299.218 26.5024 283.5C26.9728 282.307 27.9728 281.64 29.5024 281.5C33.8009 282.297 38.1342 282.63 42.5024 282.5Z" fill="#F9A384"/>
<path fill-rule="evenodd" clip-rule="evenodd" d="M25.4998 280.5C31.404 280.321 37.0707 280.988 42.4998 282.5C38.1316 282.63 33.7983 282.297 29.4998 281.5C27.9702 281.64 26.9702 282.307 26.4998 283.5C25.5958 282.791 25.2625 281.791 25.4998 280.5Z" fill="#D0B3A8"/>
<path fill-rule="evenodd" clip-rule="evenodd" d="M238.5 282.5C239.721 281.535 241.054 281.702 242.5 283C299.167 283.333 355.833 283.667 412.5 284C355.5 284.667 298.5 284.667 241.5 284C240.473 283.487 239.473 282.987 238.5 282.5Z" fill="#666B70"/>
<path fill-rule="evenodd" clip-rule="evenodd" d="M182.5 311.5C191.173 311.334 199.84 311.5 208.5 312C195.455 312.204 182.455 312.704 169.5 313.5C169.611 312.883 169.944 312.383 170.5 312C174.486 311.501 178.486 311.334 182.5 311.5Z" fill="#979795"/>
<path fill-rule="evenodd" clip-rule="evenodd" d="M182.5 311.5C182.5 311.167 182.5 310.833 182.5 310.5C209.089 310.562 235.589 310.562 262 310.5C265.207 310.741 268.374 311.241 271.5 312C272.958 314.077 273.624 316.41 273.5 319C270.567 341.706 267.233 364.206 263.5 386.5C262.58 385.933 262.246 386.599 262.5 388.5C211.5 388.5 160.5 388.5 109.5 388.5C107.38 387.597 107.046 386.263 108.5 384.5C125.167 384.5 141.833 384.5 158.5 384.5C158.5 382.833 158.5 381.167 158.5 379.5C158.194 376.615 158.527 373.948 159.5 371.5C161.094 368.362 161.761 364.362 161.5 359.5C162.801 355.057 163.468 350.391 163.5 345.5C164.989 341.764 165.656 337.764 165.5 333.5C165.279 330.721 165.612 328.054 166.5 325.5C167.49 321.615 168.49 317.615 169.5 313.5C182.455 312.704 195.455 312.204 208.5 312C199.84 311.5 191.173 311.334 182.5 311.5Z" fill="#D7D7CF"/>
<path fill-rule="evenodd" clip-rule="evenodd" d="M169.498 313.5C168.488 317.615 167.488 321.615 166.498 325.5C166.362 322.449 166.696 319.449 167.498 316.5C167.451 314.962 168.118 313.962 169.498 313.5Z" fill="#756662"/>
<path fill-rule="evenodd" clip-rule="evenodd" d="M170.5 329.5C171.139 330.097 171.472 330.93 171.5 332C168.829 348.86 165.996 365.694 163 382.5C165.059 364.809 167.559 347.142 170.5 329.5Z" fill="#8A8C8D"/>
<path fill-rule="evenodd" clip-rule="evenodd" d="M164.5 333.5C164.833 333.5 165.167 333.5 165.5 333.5C165.656 337.764 164.989 341.764 163.5 345.5C163.505 341.466 163.838 337.466 164.5 333.5Z" fill="#828688"/>
<path fill-rule="evenodd" clip-rule="evenodd" d="M214.5 343.5C222.303 343.789 224.303 347.289 220.5 354C213.51 356.005 210.676 353.505 212 346.5C212.698 345.309 213.531 344.309 214.5 343.5Z" fill="#FDFDFC"/>
<path fill-rule="evenodd" clip-rule="evenodd" d="M162.5 345.5C162.833 345.5 163.167 345.5 163.5 345.5C163.468 350.391 162.801 355.057 161.5 359.5C161.669 354.819 162.002 350.152 162.5 345.5Z" fill="#6C5E5A"/>
<path fill-rule="evenodd" clip-rule="evenodd" d="M161.5 359.5C161.761 364.362 161.094 368.362 159.5 371.5C159.5 370.167 159.5 368.833 159.5 367.5C159.802 364.627 160.469 361.961 161.5 359.5Z" fill="#796E6B"/>
<path fill-rule="evenodd" clip-rule="evenodd" d="M50.5001 366.5C80.5037 370.433 110.504 374.1 140.5 377.5C140.629 379.216 140.962 380.883 141.5 382.5C130.5 383.167 119.5 383.833 108.5 384.5C107.046 386.263 107.38 387.597 109.5 388.5C120.654 389.495 131.988 389.828 143.5 389.5C143.281 390.675 143.614 391.675 144.5 392.5C149.463 391.637 154.463 390.97 159.5 390.5C181.542 389.187 203.542 389.187 225.5 390.5C225.5 391.167 225.833 391.5 226.5 391.5C229.379 394.592 231.213 398.259 232 402.5C234.515 441.469 235.848 480.469 236 519.5C234.301 520.406 232.467 520.739 230.5 520.5C219.842 521.358 209.176 522.192 198.5 523C197.925 528.414 197.925 533.914 198.5 539.5C197.511 544.975 197.178 550.642 197.5 556.5C194.95 565.15 191.617 573.483 187.5 581.5C186.14 580.82 184.807 580.153 183.5 579.5C173.495 575.832 163.495 572.165 153.5 568.5C151.097 568.305 149.43 567.138 148.5 565C158.471 536.921 168.137 508.755 177.5 480.5C175.435 480.483 173.435 480.15 171.5 479.5C171.027 478.094 170.027 477.427 168.5 477.5C157.049 473.606 145.716 469.439 134.5 465C117.166 464.449 99.8327 463.949 82.5001 463.5C78.2649 462.564 73.9316 462.231 69.5001 462.5C63.4909 462.666 57.4909 462.499 51.5001 462C50.9559 461.283 50.2892 460.783 49.5001 460.5C43.0985 451.697 38.2652 442.03 35.0001 431.5C30.978 419.902 30.6447 408.235 34.0001 396.5C38.7364 386.023 44.2364 376.023 50.5001 366.5Z" fill="#0E151D"/>
<path fill-rule="evenodd" clip-rule="evenodd" d="M158.5 379.5C158.5 381.167 158.5 382.833 158.5 384.5C141.833 384.5 125.167 384.5 108.5 384.5C119.5 383.833 130.5 383.167 141.5 382.5C146.74 383.449 152.073 383.782 157.5 383.5C157.232 381.901 157.566 380.568 158.5 379.5Z" fill="#373D42"/>
<path fill-rule="evenodd" clip-rule="evenodd" d="M611.5 385.5C610.873 408.138 603.373 428.471 589 446.5C590.466 423.936 597.966 403.603 611.5 385.5Z" fill="#131B22"/>
<path fill-rule="evenodd" clip-rule="evenodd" d="M263.5 386.5C263.5 387.5 263.5 388.5 263.5 389.5C250.656 389.171 237.989 389.505 225.5 390.5C203.542 389.187 181.542 389.187 159.5 390.5C154.36 389.512 149.026 389.179 143.5 389.5C131.988 389.828 120.654 389.495 109.5 388.5C160.5 388.5 211.5 388.5 262.5 388.5C262.246 386.599 262.58 385.933 263.5 386.5Z" fill="#717575"/>
<path fill-rule="evenodd" clip-rule="evenodd" d="M143.499 389.5C149.025 389.179 154.359 389.512 159.499 390.5C154.462 390.97 149.462 391.637 144.499 392.5C143.613 391.675 143.28 390.675 143.499 389.5Z" fill="#CBCDCE"/>
<path fill-rule="evenodd" clip-rule="evenodd" d="M263.5 389.5C251.167 390.167 238.833 390.833 226.5 391.5C225.833 391.5 225.5 391.167 225.5 390.5C237.989 389.505 250.656 389.171 263.5 389.5Z" fill="#BFC2C4"/>
<path fill-rule="evenodd" clip-rule="evenodd" d="M583.5 454.5C583.5 455.5 583.5 456.5 583.5 457.5C569.212 438.238 561.046 416.571 559 392.5C572.741 410.875 580.907 431.542 583.5 454.5Z" fill="#131A22"/>
<path fill-rule="evenodd" clip-rule="evenodd" d="M577.5 480.5C577.672 481.492 577.338 482.158 576.5 482.5C560.277 463.344 550.11 441.344 546 416.5C562.083 435 572.583 456.333 577.5 480.5Z" fill="#131A22"/>
<path fill-rule="evenodd" clip-rule="evenodd" d="M583.5 469.5C582.957 469.44 582.624 469.107 582.5 468.5C583.18 467.14 583.847 465.807 584.5 464.5C594.098 446.235 607.764 432.568 625.5 423.5C616.045 442.957 602.045 458.29 583.5 469.5Z" fill="#131A22"/>
<path fill-rule="evenodd" clip-rule="evenodd" d="M493.5 432.5C499.192 439.208 503.358 446.875 506 455.5C508.9 465.323 510.233 475.323 510 485.5C499.784 469.349 494.284 451.682 493.5 432.5Z" fill="#2F424B"/>
<path fill-rule="evenodd" clip-rule="evenodd" d="M519.501 504.5C518.834 504.5 518.501 504.833 518.501 505.5C516.508 504 516.175 502.167 517.501 500C514.391 482.542 515.558 465.375 521.001 448.5C523.871 455.317 525.037 462.484 524.501 470C524.188 481.711 522.521 493.211 519.501 504.5Z" fill="#30424C"/>
<path fill-rule="evenodd" clip-rule="evenodd" d="M570.5 512.5C570.5 512.833 570.5 513.167 570.5 513.5C553.658 494.486 543.325 472.486 539.5 447.5C555.434 466.373 565.767 488.039 570.5 512.5Z" fill="#131A22"/>
<path fill-rule="evenodd" clip-rule="evenodd" d="M49.5 460.5C50.2891 460.783 50.9558 461.283 51.5 462C57.4908 462.499 63.4908 462.666 69.5 462.5C72.6414 463.321 75.9748 463.821 79.5 464C78.3044 464.654 78.3044 465.154 79.5 465.5C80.7387 465.058 81.7387 464.391 82.5 463.5C99.8326 463.949 117.166 464.449 134.5 465C145.716 469.439 157.049 473.606 168.5 477.5C155.677 478.495 142.677 478.829 129.5 478.5C102.172 479.146 74.8386 479.646 47.5 480C74.8756 480.816 102.209 480.649 129.5 479.5C143.5 479.5 157.5 479.5 171.5 479.5C173.435 480.15 175.435 480.483 177.5 480.5C168.137 508.755 158.471 536.921 148.5 565C149.43 567.138 151.097 568.305 153.5 568.5C153.443 569.609 153.11 570.609 152.5 571.5C151.624 571.369 150.957 571.702 150.5 572.5C148.997 576.84 146.997 580.84 144.5 584.5C116.33 584.799 88.33 585.465 60.5 586.5C55.5 586.5 50.5 586.5 45.5 586.5C41.8333 586.5 38.1667 586.5 34.5 586.5C32.4134 549.183 30.9134 511.85 30 474.5C33.3272 465.33 39.8272 460.664 49.5 460.5Z" fill="#274C77"/>
<path fill-rule="evenodd" clip-rule="evenodd" d="M576.501 500.5C575.495 500.062 575.495 499.396 576.501 498.5C588.231 480.385 603.897 467.718 623.501 460.5C612.11 478.894 596.443 492.227 576.501 500.5Z" fill="#131A22"/>
<path fill-rule="evenodd" clip-rule="evenodd" d="M69.5 462.5C73.9315 462.231 78.2648 462.564 82.5 463.5C81.7387 464.391 80.7387 465.058 79.5 465.5C78.3044 465.154 78.3044 464.654 79.5 464C75.9748 463.821 72.6414 463.321 69.5 462.5Z" fill="#273A6B"/>
<path fill-rule="evenodd" clip-rule="evenodd" d="M511.5 493.5C511.833 494.167 512.167 494.833 512.5 495.5C492.98 491.408 475.98 482.574 461.5 469C480.656 472.078 497.323 480.245 511.5 493.5Z" fill="#2D414A"/>
<path fill-rule="evenodd" clip-rule="evenodd" d="M541.5 494.5C539.536 498.651 538.869 502.984 539.5 507.5C538.414 507.62 537.747 508.287 537.5 509.5C535.494 516.684 532.994 523.684 530 530.5C529.5 529.5 529 528.5 528.5 527.5C528.808 514.338 530.474 501.338 533.5 488.5C533.32 487.446 532.987 486.446 532.5 485.5C532.846 484.304 533.346 484.304 534 485.5C535.743 481.016 537.743 476.683 540 472.5C541.429 479.719 541.929 487.053 541.5 494.5Z" fill="#30424C"/>
<path fill-rule="evenodd" clip-rule="evenodd" d="M129.5 478.5C129.5 478.833 129.5 479.167 129.5 479.5C102.209 480.649 74.8756 480.816 47.5 480C74.8386 479.646 102.172 479.146 129.5 478.5Z" fill="#2A3F74"/>
<path fill-rule="evenodd" clip-rule="evenodd" d="M168.5 477.5C170.027 477.427 171.027 478.094 171.5 479.5C157.5 479.5 143.5 479.5 129.5 479.5C129.5 479.167 129.5 478.833 129.5 478.5C142.677 478.829 155.677 478.495 168.5 477.5Z" fill="#1C2B4B"/>
<path fill-rule="evenodd" clip-rule="evenodd" d="M584.501 464.5C583.848 465.807 583.181 467.14 582.501 468.5C582.625 469.107 582.958 469.44 583.501 469.5C582.497 470.683 581.663 472.016 581.001 473.5C579.01 481.13 577.177 488.797 575.501 496.5C575.544 497.416 575.877 498.083 576.501 498.5C575.495 499.396 575.495 500.062 576.501 500.5C575.723 501.156 575.057 501.989 574.501 503C571.988 511.564 570.654 520.064 570.501 528.5C570.501 529.167 570.834 529.5 571.501 529.5C570.829 530.267 569.996 530.934 569.001 531.5C567.771 538.634 566.604 545.634 565.501 552.5C564.345 546.315 564.679 540.315 566.501 534.5C568.2 528.271 569.533 521.271 570.501 513.5C570.501 513.167 570.501 512.833 570.501 512.5C572.629 503.048 574.962 493.548 577.501 484C576.945 483.617 576.612 483.117 576.501 482.5C577.339 482.158 577.673 481.492 577.501 480.5C580.259 473.14 582.259 465.473 583.501 457.5C583.501 456.5 583.501 455.5 583.501 454.5C584.932 454.119 585.765 453.119 586.001 451.5C585.92 455.597 585.087 459.597 583.501 463.5C583.625 464.107 583.958 464.44 584.501 464.5Z" fill="#7D8286"/>
<path fill-rule="evenodd" clip-rule="evenodd" d="M571.5 529.5C570.833 529.5 570.5 529.167 570.5 528.5C582.508 510.311 598.508 497.144 618.5 489C607.271 507.735 591.604 521.235 571.5 529.5Z" fill="#131A22"/>
<path fill-rule="evenodd" clip-rule="evenodd" d="M521.5 512.5C522.848 513.527 523.348 514.86 523 516.5C502.137 513.484 483.304 505.65 466.5 493C486.148 494.32 503.814 500.987 519.5 513C520.437 513.692 521.103 513.525 521.5 512.5Z" fill="#2E414B"/>
<path fill-rule="evenodd" clip-rule="evenodd" d="M512.5 495.5C512.167 494.833 511.833 494.167 511.5 493.5C511.771 492.448 511.938 491.115 512 489.5C512.931 491.459 513.764 493.459 514.5 495.5C514.03 496.463 513.363 496.463 512.5 495.5Z" fill="#969DA0"/>
<path fill-rule="evenodd" clip-rule="evenodd" d="M541.5 494.5C543.167 497.167 544.833 499.833 546.5 502.5C546.804 503.15 547.137 503.817 547.5 504.5C546.225 507.373 545.392 510.373 545 513.5C544.764 515.119 543.931 516.119 542.5 516.5C541.216 513.598 540.216 510.598 539.5 507.5C538.869 502.984 539.536 498.651 541.5 494.5Z" fill="#101820"/>
<path fill-rule="evenodd" clip-rule="evenodd" d="M553.5 515.5C551.871 520.591 550.871 525.924 550.5 531.5C547.871 536.872 545.704 542.539 544 548.5C542.67 553.694 541.17 553.694 539.5 548.5C539.846 547.304 540.346 547.304 541 548.5C541.205 538.599 542.038 528.766 543.5 519C543.257 518.098 542.923 517.265 542.5 516.5C543.931 516.119 544.764 515.119 545 513.5C545.392 510.373 546.225 507.373 547.5 504.5C547.137 503.817 546.804 503.15 546.5 502.5C547.376 502.631 548.043 502.298 548.5 501.5C549.577 499.088 550.744 496.754 552 494.5C553.425 501.385 553.925 508.385 553.5 515.5Z" fill="#30424C"/>
<path fill-rule="evenodd" clip-rule="evenodd" d="M519.5 504.5C520.167 507.167 520.833 509.833 521.5 512.5C519.707 510.574 518.707 508.241 518.5 505.5C518.5 504.833 518.833 504.5 519.5 504.5Z" fill="#999D9F"/>
<path fill-rule="evenodd" clip-rule="evenodd" d="M478.5 517.5C486.227 516.827 493.893 517.994 501.5 521C514.226 525.78 525.559 531.947 535.5 539.5C514.48 538.148 495.48 530.814 478.5 517.5Z" fill="#2F424B"/>
<path fill-rule="evenodd" clip-rule="evenodd" d="M553.5 515.5C555.556 519.333 557.222 523.333 558.5 527.5C558.678 528.695 559.011 529.862 559.5 531C558.597 534.248 557.264 537.081 555.5 539.5C553.833 536.833 552.167 534.167 550.5 531.5C550.871 525.924 551.871 520.591 553.5 515.5Z" fill="#111921"/>
<path fill-rule="evenodd" clip-rule="evenodd" d="M566.499 534.5C564.677 540.315 564.343 546.315 565.499 552.5C565.499 553.833 565.499 555.167 565.499 556.5C565.166 556.5 564.832 556.5 564.499 556.5C564.659 554.801 564.493 553.134 563.999 551.5C561.407 558.441 558.907 565.441 556.499 572.5C555.507 565.018 555.174 557.352 555.499 549.5C555.983 546.049 555.983 542.716 555.499 539.5C557.263 537.081 558.596 534.248 559.499 531C559.01 529.862 558.677 528.695 558.499 527.5C559.375 527.631 560.042 527.298 560.499 526.5C561.999 522.833 563.499 519.167 564.999 515.5C566.369 521.742 566.869 528.075 566.499 534.5Z" fill="#2D4049"/>
<path fill-rule="evenodd" clip-rule="evenodd" d="M230.502 520.5C230.502 527.167 230.502 533.833 230.502 540.5C219.848 539.85 209.181 539.516 198.502 539.5C197.927 533.914 197.927 528.414 198.502 523C209.178 522.192 219.844 521.358 230.502 520.5Z" fill="#F7A384"/>
<path fill-rule="evenodd" clip-rule="evenodd" d="M565.5 560.5C565.833 559.833 566.167 559.167 566.5 558.5C578.359 540.731 594.026 527.397 613.5 518.5C614.521 519.002 614.688 519.668 614 520.5C601.601 538.443 585.434 551.776 565.5 560.5Z" fill="#141B23"/>
<path fill-rule="evenodd" clip-rule="evenodd" d="M333.5 532.5C355.167 532.5 376.833 532.5 398.5 532.5C399.665 547.141 400.332 561.808 400.5 576.5C369.173 577.284 337.84 577.617 306.5 577.5C315.318 576.507 324.318 576.173 333.5 576.5C333.5 561.833 333.5 547.167 333.5 532.5Z" fill="#F2F1EE"/>
<path fill-rule="evenodd" clip-rule="evenodd" d="M352.5 539.5C361.833 539.5 371.167 539.5 380.5 539.5C380.5 541.833 380.5 544.167 380.5 546.5C371.167 546.5 361.833 546.5 352.5 546.5C352.5 544.167 352.5 541.833 352.5 539.5Z" fill="#D9D9D2"/>
<path fill-rule="evenodd" clip-rule="evenodd" d="M198.502 539.5C209.181 539.516 219.848 539.85 230.502 540.5C232.31 541.918 232.977 543.918 232.502 546.5C232.502 547.833 233.169 548.5 234.502 548.5C234.191 549.478 233.524 550.145 232.502 550.5C232.169 552.333 231.835 554.167 231.502 556C231.276 558.671 231.943 561.004 233.502 563C244.237 566.968 254.57 571.801 264.502 577.5C243.007 578.014 221.34 578.014 199.502 577.5C199.234 570.317 198.567 563.317 197.502 556.5C197.18 550.642 197.513 544.975 198.502 539.5Z" fill="#2B3D47"/>
<path fill-rule="evenodd" clip-rule="evenodd" d="M493.5 544.5C512.873 545.321 530.54 551.654 546.5 563.5C547.192 562.975 547.692 562.308 548 561.5C549.292 563.249 550.458 565.082 551.5 567C530.025 564.899 510.692 557.399 493.5 544.5Z" fill="#32444E"/>
<path fill-rule="evenodd" clip-rule="evenodd" d="M234.5 548.5C233.167 548.5 232.5 547.833 232.5 546.5C233.364 545.312 234.364 544.145 235.5 543C237.667 542.5 238.5 543.333 238 545.5C237.241 547.063 236.074 548.063 234.5 548.5Z" fill="#AEB1B4"/>
<path fill-rule="evenodd" clip-rule="evenodd" d="M564.5 556.5C563.326 562.399 562.659 568.399 562.5 574.5C560.5 574.5 558.5 574.5 556.5 574.5C556.5 573.833 556.5 573.167 556.5 572.5C558.908 565.441 561.408 558.441 564 551.5C564.494 553.134 564.66 554.801 564.5 556.5Z" fill="#F5F6F6"/>
<path fill-rule="evenodd" clip-rule="evenodd" d="M348.498 554.5C360.498 554.5 372.498 554.5 384.498 554.5C384.498 559.167 384.498 563.833 384.498 568.5C372.812 568.832 361.146 568.499 349.498 567.5C348.559 563.235 348.226 558.902 348.498 554.5Z" fill="#FDFDFD"/>
<path fill-rule="evenodd" clip-rule="evenodd" d="M564.5 556.5C564.833 556.5 565.167 556.5 565.5 556.5C565.328 557.492 565.662 558.158 566.5 558.5C566.167 559.167 565.833 559.833 565.5 560.5C564.372 565.062 563.705 569.728 563.5 574.5C563.167 574.5 562.833 574.5 562.5 574.5C562.659 568.399 563.326 562.399 564.5 556.5Z" fill="#9DA0A3"/>
<path fill-rule="evenodd" clip-rule="evenodd" d="M210.5 559.5C213.084 560.048 214.084 561.715 213.5 564.5C208.516 564.856 207.516 563.189 210.5 559.5Z" fill="#CCCDC7"/>
<path fill-rule="evenodd" clip-rule="evenodd" d="M555.5 549.5C555.175 557.352 555.508 565.018 556.5 572.5C556.5 573.167 556.5 573.833 556.5 574.5C555.833 574.5 555.167 574.5 554.5 574.5C554.297 572.956 553.63 571.622 552.5 570.5C552.846 569.304 553.346 569.304 554 570.5C554.171 563.321 554.671 556.321 555.5 549.5Z" fill="#828C91"/>
<path fill-rule="evenodd" clip-rule="evenodd" d="M197.501 556.5C198.566 563.317 199.233 570.317 199.501 577.5C199.501 579.167 199.501 580.833 199.501 582.5C196.616 582.194 193.949 582.527 191.501 583.5C191.168 583.5 190.834 583.5 190.501 583.5C187.834 583.5 185.168 583.5 182.501 583.5C182.434 582.041 182.767 580.708 183.501 579.5C184.808 580.153 186.141 580.82 187.501 581.5C191.618 573.483 194.951 565.15 197.501 556.5Z" fill="#274C77"/>
<path fill-rule="evenodd" clip-rule="evenodd" d="M153.5 568.5C163.495 572.165 173.495 575.832 183.5 579.5C182.766 580.708 182.433 582.041 182.5 583.5C181.662 583.842 181.328 584.508 181.5 585.5C171.68 581.09 162.014 576.423 152.5 571.5C153.11 570.609 153.443 569.609 153.5 568.5Z" fill="#EF9E81"/>
<path fill-rule="evenodd" clip-rule="evenodd" d="M152.5 571.5C162.014 576.423 171.68 581.09 181.5 585.5C181.611 586.117 181.944 586.617 182.5 587C180.626 590.581 178.626 594.081 176.5 597.5C174.669 596.071 172.669 595.571 170.5 596C172.377 597.185 174.377 598.185 176.5 599C175.944 599.383 175.611 599.883 175.5 600.5C171.845 603.687 171.845 606.687 175.5 609.5C175.611 610.117 175.944 610.617 176.5 611C171.151 614.664 171.485 615.164 177.5 612.5C178.814 613.313 179.981 614.313 181 615.5C180.333 617.5 179.667 619.5 179 621.5C182.47 617.531 185.137 618.198 187 623.5C187.191 621.292 187.691 619.292 188.5 617.5C188.336 620.187 188.503 622.854 189 625.5C191.054 628.047 192.887 630.714 194.5 633.5C194.5 633.833 194.5 634.167 194.5 634.5C175.167 624.833 155.833 615.167 136.5 605.5C139.17 598.488 141.837 591.488 144.5 584.5C146.997 580.84 148.997 576.84 150.5 572.5C150.957 571.702 151.624 571.369 152.5 571.5Z" fill="#293D47"/>
<path fill-rule="evenodd" clip-rule="evenodd" d="M563.5 574.5C575.167 574.5 586.833 574.5 598.5 574.5C598.5 579.833 598.5 585.167 598.5 590.5C595.5 590.5 592.5 590.5 589.5 590.5C591.948 589.527 594.615 589.194 597.5 589.5C597.5 584.833 597.5 580.167 597.5 575.5C585.988 575.828 574.654 575.495 563.5 574.5Z" fill="#8398DC"/>
<path fill-rule="evenodd" clip-rule="evenodd" d="M199.5 577.5C221.338 578.014 243.005 578.014 264.5 577.5C266.727 578.401 267.727 580.067 267.5 582.5C242.153 582.256 216.819 582.59 191.5 583.5C193.948 582.527 196.615 582.194 199.5 582.5C199.5 580.833 199.5 579.167 199.5 577.5Z" fill="#A1ABA9"/>
<path fill-rule="evenodd" clip-rule="evenodd" d="M504.5 634.5C401.167 634.5 297.833 634.5 194.5 634.5C194.5 634.167 194.5 633.833 194.5 633.5C233.5 633.5 272.5 633.5 311.5 633.5C334.167 633.5 356.833 633.5 379.5 633.5C378.976 618.82 378.309 604.153 377.5 589.5C355.5 589.5 333.5 589.5 311.5 589.5C309.833 589.5 308.167 589.5 306.5 589.5C306.5 585.5 306.5 581.5 306.5 577.5C337.84 577.617 369.173 577.284 400.5 576.5C400.332 561.808 399.665 547.141 398.5 532.5C376.833 532.5 355.167 532.5 333.5 532.5C331.5 532.5 329.5 532.5 327.5 532.5C327.5 528.167 327.5 523.833 327.5 519.5C376.833 519.5 426.167 519.5 475.5 519.5C475.5 523.833 475.5 528.167 475.5 532.5C473.833 532.5 472.167 532.5 470.5 532.5C470.5 547.5 470.5 562.5 470.5 577.5C465.167 577.5 459.833 577.5 454.5 577.5C454.5 581.5 454.5 585.5 454.5 589.5C452.833 589.5 451.167 589.5 449.5 589.5C449.5 604.167 449.5 618.833 449.5 633.5C468.008 633.17 486.341 633.503 504.5 634.5Z" fill="#E5E4DF"/>
<path fill-rule="evenodd" clip-rule="evenodd" d="M182.5 583.5C185.167 583.5 187.833 583.5 190.5 583.5C189.894 594.837 189.227 606.17 188.5 617.5C187.691 619.292 187.191 621.292 187 623.5C185.137 618.198 182.47 617.531 179 621.5C179.667 619.5 180.333 617.5 181 615.5C179.981 614.313 178.814 613.313 177.5 612.5C171.485 615.164 171.151 614.664 176.5 611C175.944 610.617 175.611 610.117 175.5 609.5C175.5 606.5 175.5 603.5 175.5 600.5C175.611 599.883 175.944 599.383 176.5 599C174.377 598.185 172.377 597.185 170.5 596C172.669 595.571 174.669 596.071 176.5 597.5C178.626 594.081 180.626 590.581 182.5 587C181.944 586.617 181.611 586.117 181.5 585.5C181.328 584.508 181.662 583.842 182.5 583.5Z" fill="#0E161E"/>
<path fill-rule="evenodd" clip-rule="evenodd" d="M45.5 586.5C50.5 586.5 55.5 586.5 60.5 586.5C60.9072 597.831 61.2406 609.164 61.5 620.5C61.5 624.833 61.5 629.167 61.5 633.5C57.5 633.5 53.5 633.5 49.5 633.5C48.3647 617.814 47.0313 602.147 45.5 586.5Z" fill="#0F171F"/>
<path fill-rule="evenodd" clip-rule="evenodd" d="M311.5 589.5C333.5 589.5 355.5 589.5 377.5 589.5C378.309 604.153 378.976 618.82 379.5 633.5C356.833 633.5 334.167 633.5 311.5 633.5C311.5 618.833 311.5 604.167 311.5 589.5Z" fill="#F2F1EE"/>
<path fill-rule="evenodd" clip-rule="evenodd" d="M554.5 574.5C555.167 574.5 555.833 574.5 556.5 574.5C558.5 574.5 560.5 574.5 562.5 574.5C562.833 574.5 563.167 574.5 563.5 574.5C574.654 575.495 585.988 575.828 597.5 575.5C597.5 580.167 597.5 584.833 597.5 589.5C594.615 589.194 591.948 589.527 589.5 590.5C587.067 603.767 585.067 617.1 583.5 630.5C582.596 631.209 582.263 632.209 582.5 633.5C566.167 633.5 549.833 633.5 533.5 633.5C531.608 619.15 529.608 604.816 527.5 590.5C524.5 590.5 521.5 590.5 518.5 590.5C518.5 585.167 518.5 579.833 518.5 574.5C530.5 574.5 542.5 574.5 554.5 574.5Z" fill="#274C77"/>
<path fill-rule="evenodd" clip-rule="evenodd" d="M330.5 596.5C340.167 596.5 349.833 596.5 359.5 596.5C359.5 598.833 359.5 601.167 359.5 603.5C349.833 603.5 340.167 603.5 330.5 603.5C330.5 601.167 330.5 598.833 330.5 596.5Z" fill="#DADAD2"/>
<path fill-rule="evenodd" clip-rule="evenodd" d="M175.499 600.5C175.499 603.5 175.499 606.5 175.499 609.5C171.844 606.687 171.844 603.687 175.499 600.5Z" fill="#D3D6D7"/>
<path fill-rule="evenodd" clip-rule="evenodd" d="M136.501 605.5C155.834 615.167 175.168 624.833 194.501 634.5C297.834 634.5 401.168 634.5 504.501 634.5C506.501 634.5 508.501 634.5 510.501 634.5C536.834 634.5 563.168 634.5 589.501 634.5C474.172 635.358 342.839 635.858 195.501 636C196.338 637.011 196.671 638.178 196.501 639.5C195.834 639.5 195.168 639.5 194.501 639.5C192.366 637.929 190.033 636.596 187.501 635.5C186.036 634.263 184.369 633.263 182.501 632.5C179.834 631.5 177.168 630.5 174.501 629.5C174.168 629.5 173.834 629.5 173.501 629.5C160.926 623.213 148.26 616.879 135.501 610.5C134.367 608.561 134.701 606.895 136.501 605.5Z" fill="#959D9D"/>
<path fill-rule="evenodd" clip-rule="evenodd" d="M327.5 611.5C339.5 611.5 351.5 611.5 363.5 611.5C363.5 616.5 363.5 621.5 363.5 626.5C351.5 626.5 339.5 626.5 327.5 626.5C327.5 621.5 327.5 616.5 327.5 611.5Z" fill="#FDFDFD"/>
<path fill-rule="evenodd" clip-rule="evenodd" d="M174.5 629.5C177.167 630.5 179.833 631.5 182.5 632.5C180.052 633.473 177.385 633.806 174.5 633.5C174.5 632.167 174.5 630.833 174.5 629.5Z" fill="#161D24"/>
<path fill-rule="evenodd" clip-rule="evenodd" d="M173.5 629.5C173.833 629.5 174.167 629.5 174.5 629.5C174.5 630.833 174.5 632.167 174.5 633.5C145.005 634.498 115.338 634.831 85.5 634.5C114.662 633.502 143.995 633.169 173.5 633.5C173.5 632.167 173.5 630.833 173.5 629.5Z" fill="#C2C4C6"/>
<path fill-rule="evenodd" clip-rule="evenodd" d="M583.5 630.5C583.5 631.5 583.5 632.5 583.5 633.5C585.735 633.205 587.735 633.539 589.5 634.5C563.167 634.5 536.833 634.5 510.5 634.5C517.982 633.508 525.648 633.175 533.5 633.5C549.833 633.5 566.167 633.5 582.5 633.5C582.263 632.209 582.596 631.209 583.5 630.5Z" fill="#ACB4C8"/>
<path fill-rule="evenodd" clip-rule="evenodd" d="M61.5 620.5C62.4861 624.97 62.8195 629.637 62.5 634.5C70.1667 634.5 77.8333 634.5 85.5 634.5C115.338 634.831 145.005 634.498 174.5 633.5C177.385 633.806 180.052 633.473 182.5 632.5C184.368 633.263 186.035 634.263 187.5 635.5C129.166 635.667 70.8324 635.5 12.5 635C25.0068 634.831 37.3401 634.331 49.5 633.5C53.5 633.5 57.5 633.5 61.5 633.5C61.5 629.167 61.5 624.833 61.5 620.5Z" fill="#8D9195"/>
</g>
<defs>
<clipPath id="clip0_28_5410">
<rect width="620" height="640" fill="white"/>
</clipPath>
</defs>
</svg>
