<svg width="185" height="186" viewBox="0 0 185 186" fill="none" xmlns="http://www.w3.org/2000/svg">
<g clip-path="url(#clip0_28_5356)">
<mask id="mask0_28_5356" style="mask-type:luminance" maskUnits="userSpaceOnUse" x="0" y="0" width="185" height="187">
<path d="M184.521 0.00012207H0V186.463H184.521V0.00012207Z" fill="white"/>
</mask>
<g mask="url(#mask0_28_5356)">
<mask id="mask1_28_5356" style="mask-type:luminance" maskUnits="userSpaceOnUse" x="0" y="0" width="185" height="187">
<path d="M184.521 3.05176e-05H0V186.463H184.521V3.05176e-05Z" fill="white"/>
</mask>
<g mask="url(#mask1_28_5356)">
<path fill-rule="evenodd" clip-rule="evenodd" d="M50.0238 12.5555C94.0857 -11.0221 148.75 6.00617 172.077 50.5417C195.405 95.0775 178.557 150.33 134.495 173.908C90.4333 197.486 35.7685 180.457 12.4416 135.922C-10.8852 91.3859 5.96194 36.1332 50.0238 12.5555ZM62.3941 36.1332C93.6143 19.4622 132.139 31.4891 148.633 63.045C165.126 94.601 153.227 133.54 122.007 150.211C90.7868 166.882 52.2622 154.855 35.7685 123.299C19.2747 91.7433 31.1738 52.8043 62.3941 36.1332Z" stroke="#274C77" stroke-width="1.31247" stroke-miterlimit="2.61313"/>
<path d="M101.5 53.427C98.1501 54.9125 92.5673 54.6293 90.6133 53.427V44.362C94.8652 42.208 97.2477 42.1684 101.5 44.362V53.427Z" fill="#274C77"/>
<path d="M80.5547 60.0822L81.3411 56.8853C81.4808 56.9443 81.6212 57.0026 81.7626 57.0601C94.0375 69.0339 106.829 76.7224 115.101 77.8517L115.752 81.2304C102.226 77.8795 93.4342 72.5828 80.5547 60.0822Z" fill="#274C77"/>
<path d="M85.5078 59.4799L86.5479 58.6003C87.8534 58.9202 89.207 59.1765 90.5998 59.3636C89.5801 59.995 88.5225 60.6125 87.4204 61.2203C86.7565 60.6409 86.1171 60.0597 85.5078 59.4799Z" fill="#274C77"/>
<path d="M88.2734 61.9521C89.7745 61.1775 91.1941 60.3897 92.5467 59.5771C93.7147 59.6767 94.9059 59.7282 96.1158 59.7282C96.7565 59.7282 97.3923 59.7138 98.022 59.6852C95.8301 61.2185 93.4682 62.6535 90.8598 64.0436C89.9708 63.3539 89.1055 62.6551 88.2734 61.9521Z" fill="#274C77"/>
<path d="M91.9727 64.8921C95.3084 63.1821 98.2427 61.4093 100.933 59.4507C103.228 59.1834 105.423 58.7285 107.479 58.1112C103.774 61.4447 99.7023 64.2488 94.7387 66.8915C93.8031 66.2399 92.878 65.5717 91.9727 64.8921Z" fill="#274C77"/>
<path d="M123.893 123.49L124.308 125.647V126.9C114.949 119.828 100.302 103.388 95.8359 98.2886C96.2908 97.5959 96.9065 96.6485 97.6021 95.5629C104.487 103.644 119.407 120.129 123.893 123.49Z" fill="#274C77"/>
<path d="M122.507 116.311L123.213 119.975C115.322 113.848 104.022 101.595 98.0312 94.8881C98.5768 94.0325 99.1586 93.112 99.7422 92.1764C106.793 100.256 117.889 112.39 122.507 116.311Z" fill="#274C77"/>
<path d="M121.139 109.2L121.84 112.841C115.654 108.108 107.255 99.4314 100.988 92.6275C102.822 93.4706 104.931 94.3196 107.264 95.0841C112.801 101.126 118.361 106.921 121.139 109.2Z" fill="#274C77"/>
<path d="M118.911 97.6307L120.674 106.78L111.469 96.589L115.795 97.1944C116.781 97.3603 117.788 97.5025 118.814 97.6171L118.911 97.6307Z" fill="#274C77"/>
<path d="M117.994 92.873L118.632 96.1827C103.914 95.1746 92.2604 87.4054 77.207 73.6828L78.0407 70.2948C92.4207 84.3833 101.283 89.5705 117.994 92.873Z" fill="#274C77"/>
<path d="M116.949 87.4452L117.589 90.7664C101.527 87.4953 92.3 82.5824 78.3281 69.1267L79.1606 65.7432C92.7501 78.9689 101.472 84.1693 116.949 87.4452Z" fill="#274C77"/>
<path d="M115.988 82.452L116.632 85.794C101.826 82.5159 92.805 77.4603 79.4453 64.5937L80.2778 61.21C93.2473 73.8326 101.783 79.1456 115.988 82.452Z" fill="#274C77"/>
<path d="M114.131 72.8396L114.873 76.6901C113.25 76.4459 110.516 75.8753 109.512 75.0603L114.131 72.8396Z" fill="#274C77"/>
<path d="M113.04 67.1576L113.704 70.5998C111.92 72.0156 110.034 73.3395 107.996 74.6062C106.956 74.1345 105.86 73.5957 104.727 73.0003C107.787 71.2083 110.505 69.3027 113.04 67.1576Z" fill="#274C77"/>
<path d="M112.061 62.0949L112.736 65.5963C109.871 68.0077 106.76 70.1458 103.18 72.1678C102.169 71.6078 101.136 71.0086 100.094 70.3773C104.704 67.9015 108.539 65.2613 112.061 62.0949Z" fill="#274C77"/>
<path d="M111.091 57.0408L111.688 60.1444C107.883 63.7241 103.727 66.6916 98.623 69.4662C97.6501 68.8532 96.6749 68.2152 95.707 67.5579C101.376 64.6067 105.881 61.453 110.023 57.4691C110.447 57.3265 110.801 57.1818 111.091 57.0408Z" fill="#274C77"/>
<path d="M64.0977 126.97L65.3386 121.926C65.9897 121.708 66.4329 121.529 67.0863 121.234L76.0878 132.584L76.0187 132.565C72.2036 132.279 66.5207 129.39 64.0977 126.97Z" fill="#274C77"/>
<path d="M98.3346 91.2315C89.5619 105.796 81.9892 112.051 65.6445 120.681L66.7938 116.01C80.711 109.057 87.2927 103.256 96.3935 90.0766C97.0412 90.4755 97.689 90.8615 98.3346 91.2315Z" fill="#274C77"/>
<path d="M95.2083 89.3341C88.2309 100.638 80.9245 106.715 67.0586 114.925L68.2593 110.045C79.8616 103.494 86.1211 98.0252 93.0444 87.9046C93.7624 88.3933 94.4846 88.8709 95.2083 89.3341Z" fill="#274C77"/>
<path d="M91.3608 86.7321C85.927 95.2385 79.4322 101.031 68.6484 108.467L69.9245 103.28C78.6108 97.4812 84.0192 92.4715 89.0776 85.0681C89.8287 85.6295 90.5911 86.1856 91.3608 86.7321Z" fill="#274C77"/>
<path d="M87.8571 84.1451C83.5827 90.2609 78.1828 95.4102 70.3125 101.695L71.6945 96.0781C77.631 91.4331 81.879 87.2839 85.5044 82.2995C86.2701 82.9138 87.0557 83.5311 87.8571 84.1451Z" fill="#274C77"/>
<path d="M84.3523 81.3634C81.1323 85.5773 77.1556 89.7607 72.0547 94.6235L73.6309 88.2167C76.9202 85.1236 79.6259 82.2668 81.9464 79.3463C82.7159 80.0062 83.52 80.6811 84.3523 81.3634Z" fill="#274C77"/>
<path d="M80.2033 78.4594L74.4102 85.0441L76.7784 75.4181L80.2033 78.4594Z" fill="#274C77"/>
<path d="M94.3611 121.281C93.7019 120.515 93.0489 119.735 92.3945 118.93C96.6179 115.888 100.082 112.684 103.248 108.878C103.934 109.679 104.618 110.459 105.304 111.223C102.132 114.974 98.6354 118.197 94.3611 121.281Z" fill="#274C77"/>
<path d="M95.3281 122.386C96.0058 123.152 96.6934 123.907 97.3983 124.66C101.617 121.527 105.072 118.226 108.23 114.358C107.51 113.614 106.801 112.861 106.097 112.093C102.939 116.016 99.507 119.296 95.3281 122.386Z" fill="#274C77"/>
<path d="M100.16 127.518C99.4169 126.773 98.6992 126.038 98 125.302C102.183 122.261 105.643 118.985 108.874 115.022C109.594 115.754 110.326 116.479 111.075 117.201C107.85 121.121 104.374 124.427 100.16 127.518Z" fill="#274C77"/>
<path d="M101.117 128.465C101.835 129.171 102.579 129.887 103.353 130.621C107.549 127.496 111.013 124.139 114.241 120.143C113.461 119.442 112.705 118.746 111.968 118.05C108.734 122.076 105.284 125.395 101.117 128.465Z" fill="#274C77"/>
<path d="M106.283 133.351C105.491 132.624 104.732 131.919 104 131.231C108.182 128.139 111.642 124.791 114.889 120.721C115.642 121.39 116.417 122.063 117.218 122.747C113.972 126.8 110.497 130.195 106.283 133.351Z" fill="#274C77"/>
<path d="M107.281 134.266C109.06 134.133 110.624 133.958 112.054 133.71C115.11 131.176 117.783 128.448 120.31 125.331C119.493 124.663 118.703 124.007 117.938 123.361C114.647 127.424 111.123 130.767 106.844 133.867C106.988 133.999 107.134 134.132 107.281 134.266Z" fill="#274C77"/>
<path d="M122.65 129.282C119.864 131.166 117.493 132.346 114.766 133.106C117.094 130.985 119.215 128.689 121.256 126.102C122.032 126.731 122.834 127.372 123.663 128.028C123.328 128.453 122.991 128.871 122.65 129.282Z" fill="#274C77"/>
<path d="M91.5593 117.89C95.8033 114.83 99.2804 111.632 102.434 107.917C101.776 107.134 101.113 106.33 100.441 105.498C97.2993 109.272 93.8637 112.454 89.6836 115.474C90.3166 116.308 90.9399 117.111 91.5593 117.89Z" fill="#274C77"/>
<path d="M97.6793 102.005C98.3465 102.867 99.0001 103.7 99.644 104.507C96.6802 108.338 93.3631 111.682 89.2756 114.935C88.6819 114.146 88.0788 113.327 87.4609 112.475C91.4718 109.257 94.7367 105.916 97.6793 102.005Z" fill="#274C77"/>
<path d="M86.8465 111.625C90.925 108.416 94.2409 105.128 97.1963 101.381C96.5697 100.566 95.9305 99.7257 95.2756 98.8557C95.073 99.1096 94.8751 99.3565 94.6808 99.5969C94.2692 100.117 93.8509 100.626 93.4245 101.127C90.7894 104.276 88.6903 106.359 85.2266 109.337C85.7797 110.128 86.3187 110.889 86.8465 111.625Z" fill="#274C77"/>
<path d="M84.3132 110.023C91.8877 121.163 97.819 127.936 105.57 133.162L106.724 134.548C105.321 134.701 103.991 134.834 102.715 134.946C95.4601 129.782 89.5325 123.041 82.1992 112.244L82.8215 111.207C83.3073 110.827 83.8034 110.433 84.3132 110.023Z" fill="#274C77"/>
<path d="M102.26 134.985C94.404 129.882 88.4758 123.338 81.0476 112.566C80.2249 113.184 79.4209 113.766 78.6172 114.327C85.2704 124.031 90.802 130.385 97.3115 135.293C98.8894 135.237 100.524 135.131 102.26 134.985Z" fill="#274C77"/>
<path d="M77.5373 115.069C84.1505 124.495 89.6555 130.555 96.595 135.316C94.7995 135.363 93.0701 135.345 91.3404 135.249C85.7427 130.727 80.7734 124.974 75.0078 116.696C75.8737 116.163 76.7101 115.625 77.5373 115.069Z" fill="#274C77"/>
<path d="M91.2136 135.242C85.0824 130.852 80.0205 125.34 74.1784 117.198C73.3426 117.699 72.4752 118.199 71.5586 118.709C76.4105 125.533 80.7421 130.568 85.4437 134.622C87.4274 134.931 89.3217 135.133 91.2136 135.242Z" fill="#274C77"/>
<path d="M70.4317 119.328C75.144 125.789 79.3884 130.546 84.1669 134.411C82.2628 134.077 80.2632 133.646 78.0961 133.105C74.665 129.742 71.338 125.737 67.7422 120.752C68.6906 120.261 69.5831 119.789 70.4317 119.328Z" fill="#274C77"/>
<path d="M87.7948 136.299C92.9231 136.947 95.7947 136.956 100.916 136.496C101.024 138.856 101.051 143.371 100.961 143.578C99.9027 146.03 90.905 146.662 87.5625 143.666L87.7948 136.299Z" fill="#274C77"/>
<path d="M102.617 54.1431C98.7092 57.1098 91.0941 55.4102 89.7769 54.1431C88.5713 52.9835 89.2637 51.4875 89.6265 50.7036C89.7633 50.408 89.8532 50.2137 89.7769 50.1768C89.2184 49.7445 81.9609 52.3179 81.9609 53.9937C81.9609 56.3406 88.2096 58.2429 95.9179 58.2429C103.626 58.2429 109.875 56.3406 109.875 53.9937C109.875 52.386 102.617 49.4613 102.617 50.2652C102.532 50.2792 102.603 50.5257 102.712 50.8986C102.956 51.7416 103.389 53.2311 102.617 54.1431Z" fill="#274C77"/>
<mask id="path-44-outside-1_28_5356" maskUnits="userSpaceOnUse" x="10.6523" y="8.7117" width="165" height="99" fill="black">
<rect fill="white" x="10.6523" y="8.7117" width="165" height="99"/>
<path d="M20.2431 97.8856C19.7658 97.8856 19.5271 98.1242 19.2885 98.4821C19.0499 98.8401 18.9306 99.4368 18.8112 100.153C18.6919 100.988 18.4533 101.584 18.334 102.062C17.8567 103.374 17.0215 104.09 15.8284 104.209C15.2318 104.329 14.6352 104.209 14.158 103.851C13.6807 103.613 13.2034 103.136 12.8455 102.539C12.4875 101.942 12.2489 101.226 12.2489 100.51C12.1296 99.6753 12.2489 98.9594 12.4875 98.3629C12.7262 97.7662 13.0841 97.1697 13.5614 96.8117C14.0386 96.4538 14.6352 96.2152 15.2318 96.0958L15.4704 98.3629C14.9932 98.3629 14.6352 98.6014 14.3966 98.9594C14.158 99.3173 14.0386 99.7946 14.158 100.391C14.2773 100.988 14.3966 101.346 14.6352 101.584C14.8738 101.823 15.2318 101.942 15.5897 101.942C15.9477 101.942 16.1863 101.704 16.4249 101.346C16.6636 100.988 16.7829 100.391 16.9022 99.6753C17.1408 98.3629 17.4988 97.4084 17.976 96.6925C18.4533 96.0958 19.1692 95.6186 20.0043 95.6186C20.959 95.4993 21.7942 95.7378 22.3907 96.4538C22.9874 97.0504 23.3451 98.0049 23.5838 99.3173C23.7031 100.153 23.5838 100.988 23.3451 101.704C23.1066 102.42 22.7486 103.016 22.2714 103.493C21.7942 103.971 21.1975 104.209 20.4818 104.209L20.2431 101.942C21.4362 101.823 21.9134 100.988 21.7942 99.556C21.6747 99.0788 21.5555 98.6016 21.317 98.3629C21.0782 98.1242 20.7203 98.0049 20.3623 98.0049L20.2431 97.8856ZM16.7829 88.937C16.7829 89.1757 16.7829 89.5335 16.7829 89.7722C16.7829 90.6074 17.0215 91.0846 17.6181 91.4426L22.9874 91.3233V93.4709L14.7545 93.5902V91.5618L15.7091 91.4426C14.9932 90.9653 14.5159 90.3687 14.5159 89.6529C14.5159 89.4142 14.5159 89.1757 14.6352 88.937H16.7829ZM23.2259 85.1189L22.9874 87.2666L14.7545 86.5506L14.9932 84.403L23.2259 85.1189ZM12.7262 86.5506C12.3682 86.5506 12.1296 86.4314 11.891 86.1927C11.6523 85.9541 11.6523 85.5962 11.6523 85.2382C11.6523 84.8802 11.7717 84.5223 12.0103 84.403C12.2489 84.1643 12.4875 84.1643 12.8455 84.1643C13.2034 84.1643 13.4421 84.2837 13.6807 84.5223C13.9193 84.761 13.9193 85.1189 13.9193 85.4769C13.9193 85.8347 13.8 86.1927 13.5614 86.3121C13.3228 86.5506 13.0841 86.5506 12.7262 86.5506ZM22.6294 72.3522C22.1522 72.2328 21.7942 72.3522 21.5555 72.5908C21.317 72.8295 20.959 73.3067 20.4818 74.0226C20.0043 74.7384 19.6464 75.3351 19.2885 75.693C18.334 76.7667 17.2602 77.1247 16.1863 76.8862C15.5897 76.7667 15.1125 76.4088 14.7545 76.051C14.3966 75.5736 14.158 75.0964 14.0386 74.3804C13.9193 73.6647 13.9193 72.9487 14.158 72.2328C14.3966 71.5168 14.6352 70.8011 15.1125 70.3239C15.5897 69.7272 16.067 69.3692 16.6636 69.25C17.2602 69.0112 17.8567 69.0112 18.4533 69.1307L17.976 71.3976C17.4988 71.2783 17.0215 71.3976 16.6636 71.6363C16.3056 71.8748 16.067 72.2328 15.9477 72.8295C15.8284 73.4259 15.8284 73.7839 15.9477 74.1419C16.067 74.4999 16.4249 74.7384 16.7829 74.8578C17.1408 74.9771 17.4988 74.8578 17.7374 74.4999C18.0954 74.2612 18.4533 73.7839 18.8112 73.068C19.5271 71.8748 20.1238 71.0396 20.8395 70.6816C21.5555 70.2044 22.2714 70.0852 23.1066 70.3239C24.0611 70.5624 24.6578 71.0396 25.0157 71.8748C25.3735 72.71 25.3735 73.6647 25.135 74.8578C24.8963 75.693 24.6578 76.4088 24.1805 77.0055C23.7031 77.602 23.2259 78.0794 22.6294 78.3179C22.0327 78.5566 21.317 78.5566 20.7203 78.4371L21.1975 76.1703C22.3907 76.4088 23.1066 75.9315 23.4646 74.4999C23.5838 74.0226 23.5838 73.5452 23.4646 73.1874C23.3451 72.8295 23.1066 72.5908 22.6294 72.5908V72.3522ZM28.3565 64.716C28.1178 64.716 27.8793 64.716 27.6406 64.716C27.9986 65.4319 27.9986 66.1477 27.7598 66.9829C27.5213 67.6988 27.0439 68.2955 26.3282 68.6535C25.7315 69.0112 25.0157 69.0112 24.419 68.7727C23.5838 68.4148 23.1066 67.9375 22.8679 67.1023C22.6294 66.3864 22.7486 65.4319 23.2259 64.2388L23.5838 63.2841L23.1066 63.1648C22.7486 63.0456 22.3907 63.0456 22.1522 63.1648C21.9134 63.2841 21.6747 63.5228 21.5555 63.8808C21.4362 64.2388 21.4362 64.4773 21.4362 64.8352C21.5555 65.074 21.6747 65.3125 22.0327 65.4319L21.1975 67.4603C20.7203 67.3408 20.3623 66.9829 20.1238 66.6251C19.8851 66.1477 19.7658 65.6705 19.6464 65.074C19.6464 64.4773 19.7658 63.8808 20.0043 63.2841C20.3623 62.3297 20.8395 61.7332 21.5555 61.2559C22.2714 60.898 22.9874 60.898 23.8226 61.1365L27.1634 62.4489C27.8793 62.6876 28.4758 62.8069 28.953 62.8069H29.0723L28.2371 64.8352L28.3565 64.716ZM26.3282 65.9092C26.4474 65.5512 26.4474 65.3125 26.4474 64.9547C26.4474 64.5967 26.3282 64.358 26.0894 64.2388L24.777 63.7615L24.5383 64.4773C24.1805 65.5512 24.2998 66.1477 25.0157 66.5056H25.135C25.3735 66.6251 25.6122 66.6251 25.8509 66.5056C26.0894 66.3864 26.2087 66.1477 26.3282 65.9092ZM23.8226 55.2901L24.6578 55.6481C24.2998 54.8129 24.419 53.8582 24.8963 53.023C25.3735 52.3073 25.8509 51.83 26.5667 51.7106C27.1634 51.5913 27.9986 51.83 28.8338 52.3073L33.487 54.9321L32.4133 56.8412L27.8793 54.2162C27.5213 53.9777 27.1634 53.8584 26.8054 53.9777C26.5667 54.0969 26.2087 54.3356 26.0894 54.6936C25.7315 55.2901 25.8509 55.7673 26.0894 56.2445L31.1006 59.1081L30.0269 61.0172L22.8679 56.9605L23.8226 55.1708V55.2901ZM27.6406 45.1482L29.311 46.3414L30.1462 45.1482L31.4586 46.1029L30.6234 47.2961L33.9642 49.6822C34.2029 49.8017 34.4414 49.9209 34.5609 49.9209C34.6802 49.9209 34.9189 49.8017 35.1574 49.4437C35.2768 49.205 35.3961 49.0857 35.5154 48.847L36.8278 49.8017C36.7085 50.2789 36.4698 50.6369 36.2313 50.9948C35.3961 52.3073 34.2029 52.4265 33.0098 51.5913L29.4302 49.0857L28.7145 50.0402L27.4019 49.0857L28.1178 48.1313L26.4474 46.9381L27.7598 45.1482H27.6406ZM33.6062 42.1654C33.487 41.3302 33.6062 40.495 34.2029 39.7791C35.3961 38.4666 36.7085 38.3474 38.3789 39.7791L42.4357 43.2393L41.0038 44.9097L37.0665 41.5689C36.7085 41.211 36.3506 41.0915 36.112 41.0915C35.7541 41.0915 35.5154 41.3302 35.1574 41.6882C34.7994 42.1654 34.6802 42.6426 34.7994 43.2393L39.2141 47.0574L37.7824 48.7277L28.953 41.211L30.3849 39.5406L33.7257 42.4041L33.6062 42.1654ZM47.3276 38.5859C47.0889 38.4666 46.8504 38.3474 46.7309 38.2279C46.7309 39.0631 46.3731 39.6598 45.7765 40.2563C45.18 40.7337 44.464 41.0915 43.8673 41.0915C43.1516 41.0915 42.5549 40.853 42.0777 40.2563C41.4812 39.5406 41.3617 38.8246 41.4812 38.1087C41.7197 37.3927 42.1969 36.5575 43.1516 35.7223L43.8673 35.0066L43.5096 34.6486C43.2709 34.4099 43.0321 34.1714 42.6744 34.1714C42.4357 34.1714 42.0777 34.2906 41.7197 34.5292C41.4812 34.7679 41.2425 35.0066 41.2425 35.2451C41.2425 35.4838 41.2425 35.7223 41.4812 35.961L39.8108 37.3927C39.4528 37.035 39.3334 36.5575 39.3334 36.0803C39.3334 35.6031 39.4528 35.1258 39.6913 34.5292C39.9301 34.0519 40.288 33.5747 40.8845 33.0975C41.6005 32.3815 42.4357 32.143 43.1516 32.143C43.9868 32.143 44.5833 32.501 45.18 33.2167L47.5661 35.961C48.0435 36.5575 48.5208 36.9155 48.998 37.035L49.1173 37.1542L47.4469 38.5859H47.3276ZM44.9413 38.5859C45.18 38.3474 45.4185 38.1087 45.4185 37.8702C45.5379 37.6314 45.5379 37.2735 45.5379 37.035L44.5833 35.961L43.9868 36.4383C43.1516 37.1542 42.9129 37.8702 43.3901 38.4666L43.5096 38.5859C43.7481 38.8246 43.8673 38.9439 44.2253 38.9439C44.464 38.9439 44.7025 38.8246 44.9413 38.5859ZM47.2083 28.2055L47.8048 28.9215C47.8048 27.9668 48.2821 27.2511 49.1173 26.6544C49.8332 26.1772 50.5491 25.9387 51.1456 26.1772C51.7423 26.2964 52.4581 26.8931 53.0547 27.6091L56.1568 31.9043L54.3672 33.2167L51.2649 28.9215C51.0264 28.5635 50.6684 28.3248 50.4297 28.3248C50.1912 28.3248 49.8332 28.3248 49.4752 28.6828C48.998 29.0407 48.7593 29.518 48.7593 30.1147L52.1001 34.8871L50.3104 36.1998L45.5379 29.518L47.2083 28.3248V28.2055ZM62.1227 28.8022C62.0034 28.6828 61.7647 28.4443 61.6454 28.2055C61.4067 28.9215 60.9295 29.518 60.2136 29.8759C59.4978 30.2339 58.7819 30.3532 58.0659 30.1147C57.35 29.8759 56.8728 29.518 56.5148 28.9215C56.1568 28.0863 56.1568 27.3703 56.5148 26.6544C56.8728 25.9387 57.5887 25.342 58.6624 24.7455L59.6171 24.2681L59.3784 23.9103C59.2591 23.5523 59.0204 23.3136 58.6624 23.1943C58.4239 23.0751 58.0659 23.0751 57.708 23.3136C57.35 23.4329 57.1115 23.6716 56.992 23.9103C56.8728 24.1488 56.8728 24.3875 56.992 24.7455L55.0831 25.6999C54.8444 25.2227 54.8444 24.8647 54.8444 24.2681C54.9637 23.7908 55.2024 23.3136 55.5603 22.8364C55.9183 22.3591 56.3955 22.0012 56.992 21.7625C57.9467 21.2852 58.7819 21.166 59.4978 21.4045C60.2136 21.6432 60.8102 22.1204 61.2875 22.9556L62.8386 26.1772C63.1966 26.8931 63.5544 27.3703 63.9123 27.6091V27.7283L61.884 28.6828L62.1227 28.8022ZM59.8556 28.2055C60.0943 28.0863 60.333 27.8476 60.5715 27.6091C60.6908 27.3703 60.8102 27.1316 60.8102 26.7739L60.2136 25.4612L59.4978 25.8192C58.5432 26.2964 58.1852 26.8931 58.4239 27.6091V27.7283C58.5432 27.9668 58.7819 28.0863 59.0204 28.2055C59.2591 28.3248 59.4978 28.2055 59.8556 28.0863V28.2055ZM67.8498 26.1772L65.8214 27.0124L61.1682 16.274L63.1966 15.4388L67.8498 26.1772ZM74.4121 24.0295C74.2929 23.9103 74.1734 23.6716 73.9349 23.4329C73.5769 24.1488 72.9803 24.626 72.2645 24.8647C71.5486 25.1033 70.8326 25.1033 70.1167 24.7455C69.5202 24.5068 69.043 24.0295 68.8043 23.3136C68.5657 22.4784 68.685 21.7625 69.1622 21.166C69.6395 20.5693 70.4747 19.9728 71.6678 19.6148L72.6223 19.2569L72.503 18.7797C72.3838 18.4217 72.2645 18.1831 71.9065 18.0638C71.6678 17.9444 71.3099 17.9444 70.9519 18.0638C70.5941 18.1831 70.3554 18.3024 70.2361 18.541C70.1167 18.7797 70.1167 19.0183 70.1167 19.3762L67.9691 20.0921C67.8498 19.6148 67.8498 19.1376 67.9691 18.6603C68.0883 18.1831 68.4463 17.7058 68.9235 17.3479C69.4009 16.9899 69.8782 16.632 70.5941 16.5127C71.5486 16.1547 72.3838 16.1547 73.0997 16.5127C73.8155 16.8706 74.2929 17.4672 74.6507 18.3024L75.7246 21.6432C75.9633 22.3591 76.2018 22.9556 76.5598 23.1943V23.3136L74.4121 24.0295ZM72.2645 23.0751C72.6223 22.9556 72.861 22.8364 73.0997 22.5977C73.3382 22.3591 73.4577 22.1204 73.4577 21.8819L72.9803 20.5693L72.1451 20.808C71.0713 21.166 70.7134 21.6432 70.8326 22.4784V22.5977C70.9519 22.8364 71.0713 23.0751 71.3099 23.1943C71.5486 23.3136 71.7871 23.3136 72.1451 23.1943L72.2645 23.0751ZM80.7358 19.2569L80.1393 20.2115L80.4972 22.7171L78.3494 23.0751L76.4405 11.6208L78.5881 11.2628L79.662 17.5865L80.0198 16.9899L81.6904 14.2457L84.3153 13.7684L81.9289 17.5865L85.8664 21.7625L83.3608 22.1204L80.7358 19.2569ZM91.2356 19.1376C91.2356 18.899 91.1163 18.6603 90.7584 18.541C90.5196 18.4217 90.0424 18.3024 89.4457 18.1831C87.4176 17.9444 86.4629 17.1092 86.3437 15.9161C86.3437 15.2002 86.5822 14.6036 87.1788 14.0071C87.7753 13.5298 88.4913 13.1718 89.5652 13.1718C90.6389 13.1718 91.4741 13.2912 92.0708 13.7684C92.6673 14.2457 93.0252 14.8423 93.1445 15.6775L90.9969 15.7968C90.9969 15.4388 90.8776 15.2002 90.6389 15.0809C90.4004 14.8423 90.1617 14.8423 89.6844 14.8423C89.3265 14.8423 89.088 14.9616 88.8492 15.0809C88.6105 15.3195 88.6105 15.4388 88.6105 15.6775C88.6105 15.9161 88.73 16.1547 88.9685 16.274C89.2072 16.3934 89.5652 16.5127 90.1617 16.632C90.7584 16.7513 91.2356 16.7513 91.5936 16.8706C92.7867 17.2286 93.3832 17.9445 93.5025 19.0183C93.5025 19.7341 93.264 20.3308 92.6673 20.9273C92.0708 21.4045 91.2356 21.7625 90.2809 21.7625C89.5652 21.7625 88.9685 21.7625 88.372 21.5239C87.7753 21.2852 87.4174 21.0467 87.0596 20.5693C86.7016 20.2115 86.5822 19.7341 86.5822 19.2569L88.6105 19.1376C88.6105 19.4956 88.8492 19.8535 89.088 19.9728C89.3265 20.2115 89.6844 20.2115 90.1617 20.2115C90.6389 20.2115 90.8776 20.0921 91.1163 19.9728C91.3548 19.8535 91.4741 19.6148 91.3548 19.3762L91.2356 19.1376ZM98.0364 14.2457C98.6331 13.6491 99.4683 13.2912 100.304 13.4105C102.093 13.5298 102.928 14.6036 102.69 16.7513L102.213 22.0012L100.065 21.7625L100.542 16.632C100.542 16.1547 100.542 15.7968 100.304 15.5581C100.065 15.3195 99.8263 15.2002 99.3491 15.0809C98.7524 15.0809 98.2752 15.2002 97.9172 15.6775L97.4399 21.5239L95.2923 21.2852L96.2468 9.7117L98.3944 9.95033L98.0364 14.2457ZM108.178 14.6036L108.059 15.5581C108.775 14.9616 109.61 14.8423 110.565 15.0809C111.638 15.3195 112.235 15.9161 112.354 16.7513C113.07 16.0354 114.025 15.7968 115.099 16.0354C115.934 16.274 116.53 16.632 116.888 17.2286C117.246 17.8251 117.246 18.6603 117.008 19.6148L115.815 24.7455L113.667 24.2681L114.86 19.1376C114.979 18.6603 114.979 18.3024 114.86 18.0638C114.741 17.8251 114.502 17.5865 114.025 17.5865C113.428 17.4672 112.832 17.5865 112.474 18.1831L111.161 23.6716L109.013 23.1943L110.207 18.0638C110.326 17.5865 110.326 17.2286 110.207 16.9899C110.087 16.7513 109.729 16.5127 109.371 16.5127C108.775 16.3934 108.298 16.5127 107.94 16.9899L106.627 22.5977L104.48 22.1204L106.389 14.1264L108.417 14.6036H108.178ZM119.752 26.5351L117.723 25.6999L120.706 18.0638L122.735 18.899L119.752 26.5351ZM121.422 16.0354C121.542 15.6775 121.78 15.5581 122.019 15.4388C122.257 15.3195 122.615 15.3195 122.973 15.4388C123.331 15.5581 123.57 15.7968 123.689 16.0354C123.809 16.274 123.809 16.632 123.689 16.8706C123.57 17.2286 123.331 17.3479 123.093 17.4672C122.854 17.5865 122.496 17.5865 122.138 17.4672C121.78 17.3479 121.542 17.1092 121.422 16.8706C121.303 16.632 121.303 16.274 121.422 16.0354ZM130.61 29.2795C130.729 29.0407 130.729 28.8022 130.61 28.5635C130.49 28.3248 130.132 27.9668 129.655 27.6091C128.104 26.2964 127.746 25.1033 128.343 24.0295C128.7 23.4329 129.297 22.9556 130.013 22.8364C130.729 22.7171 131.564 22.8364 132.399 23.3136C133.354 23.7908 133.95 24.3875 134.189 25.2227C134.547 25.9387 134.428 26.6544 134.07 27.3703L132.161 26.2964C132.28 26.0579 132.399 25.6999 132.28 25.4612C132.161 25.2227 131.922 24.984 131.564 24.7455C131.206 24.5068 130.968 24.5068 130.729 24.5068C130.49 24.5068 130.252 24.7455 130.132 24.8647C130.013 25.1033 130.013 25.342 130.132 25.5807C130.252 25.8192 130.49 26.1772 130.968 26.5351C131.445 26.8931 131.683 27.2511 132.041 27.4896C132.876 28.4443 132.996 29.3987 132.519 30.2339C132.161 30.8304 131.564 31.3078 130.848 31.3078C130.013 31.4271 129.178 31.1884 128.343 30.7111C127.746 30.3532 127.269 29.9952 126.911 29.518C126.553 29.0407 126.314 28.5635 126.314 27.9668C126.314 27.4896 126.314 27.0124 126.553 26.5351L128.343 27.4896C128.223 27.8476 128.104 28.2055 128.343 28.4443C128.462 28.8022 128.7 29.0407 129.178 29.2795C129.536 29.518 129.894 29.518 130.132 29.518C130.371 29.518 130.61 29.3987 130.729 29.16L130.61 29.2795ZM141.229 34.6486C140.513 35.6031 139.558 36.319 138.723 36.5575C137.768 36.7962 136.933 36.677 136.217 36.0803C135.502 35.6031 135.263 34.8871 135.144 34.1714L132.757 37.2735L130.968 35.961L137.888 27.0124L139.558 28.2055L139.081 28.9215C139.916 28.6828 140.632 28.9215 141.348 29.3987C142.183 29.9952 142.541 30.8304 142.541 31.7851C142.541 32.7395 142.183 33.694 141.348 34.7679L141.229 34.8871V34.6486ZM139.558 33.2167C140.036 32.6202 140.274 32.0236 140.274 31.5463C140.274 31.0691 140.155 30.5919 139.678 30.3532C139.081 29.8759 138.604 29.8759 138.126 30.1147L136.098 32.7395C135.979 33.3362 136.217 33.8134 136.695 34.2906C137.53 34.8871 138.484 34.5292 139.558 33.2167ZM141.706 40.6143L140.155 39.0631L145.763 33.0975L147.314 34.6486L141.706 40.6143ZM147.075 31.5463C147.314 31.3078 147.552 31.1884 147.91 31.1884C148.268 31.1884 148.507 31.3078 148.745 31.5463C148.984 31.7851 149.103 32.143 149.223 32.3815C149.223 32.7395 149.103 32.9782 148.865 33.2167C148.626 33.4554 148.388 33.5747 148.03 33.5747C147.672 33.5747 147.433 33.4554 147.194 33.2167C146.956 32.9782 146.836 32.6202 146.717 32.3815C146.717 32.0236 146.836 31.7851 147.075 31.5463ZM150.893 38.2279L150.177 38.9439C151.132 38.9439 151.967 39.3018 152.564 40.0178C153.16 40.7337 153.399 41.3302 153.279 42.0462C153.16 42.6426 152.683 43.3586 151.967 44.0745L147.91 47.5346L146.478 45.8642L150.416 42.4041C150.774 42.0462 151.012 41.8074 151.012 41.5689C151.012 41.3302 150.893 40.9722 150.535 40.6143C150.177 40.137 149.581 40.0178 148.984 40.137L144.569 43.9551L143.138 42.2847L149.342 36.9155L150.654 38.4666L150.893 38.2279ZM157.097 45.8642L156.382 46.4609C157.336 46.4609 158.052 46.9381 158.649 47.7733C159.126 48.489 159.365 49.205 159.126 49.8017C159.007 50.3981 158.41 51.1141 157.694 51.7106L153.399 54.8129L152.086 53.023L156.382 49.9209C156.739 49.6822 156.978 49.3242 156.978 49.0857C156.978 48.847 156.978 48.489 156.62 48.1313C156.262 47.6538 155.785 47.4153 155.189 47.4153L150.416 50.7561L149.103 48.9665L155.785 44.1938L156.978 45.8642H157.097ZM155.904 59.9433C155.427 58.8696 155.308 57.7957 155.546 56.8412C155.904 55.8866 156.62 55.0514 157.694 54.4549L157.933 54.3356C158.649 53.9777 159.365 53.7389 160.08 53.7389C160.796 53.7389 161.512 53.8584 161.989 54.3356C162.586 54.6936 163.063 55.1708 163.302 55.8866C163.779 56.8412 163.899 57.7957 163.541 58.7501C163.183 59.5853 162.467 60.4205 161.273 60.898L160.438 61.2559L158.052 56.6025C157.575 56.9605 157.336 57.3185 157.217 57.7957C157.097 58.2729 157.097 58.7501 157.336 59.2276C157.694 59.9433 158.291 60.4205 159.007 60.54L158.41 62.0911C157.813 61.9717 157.336 61.7332 156.859 61.3752C156.382 61.0172 156.024 60.54 155.666 59.8241L155.904 59.9433ZM161.87 56.722C161.631 56.364 161.393 56.1253 161.035 56.006C160.677 55.8866 160.2 55.8866 159.723 56.1253L161.035 58.8696L161.154 58.7501C161.631 58.5116 161.87 58.2729 161.989 57.9149C162.109 57.5572 162.109 57.1992 161.87 56.722ZM165.688 66.5056C165.569 66.2671 165.569 65.9092 165.45 65.7899C165.211 64.9547 164.734 64.5967 164.137 64.5967L159.126 66.5056L158.291 64.4773L165.927 61.6137L166.643 63.5228L165.807 63.8808C166.643 64.0001 167.239 64.4773 167.478 65.1932C167.597 65.4319 167.597 65.6705 167.597 65.9092L165.569 66.6251L165.688 66.5056ZM163.779 73.7839C164.018 73.6647 164.257 73.5452 164.257 73.1874C164.376 72.9487 164.376 72.4715 164.376 71.8748C164.257 69.8464 164.853 68.7727 166.046 68.4148C166.762 68.176 167.359 68.4148 168.075 68.7727C168.671 69.25 169.148 69.9659 169.387 70.9204C169.626 71.8748 169.626 72.8295 169.268 73.5452C168.91 74.2611 168.432 74.7384 167.597 74.9771L167.001 72.8295C167.359 72.71 167.478 72.5908 167.717 72.3522C167.836 72.1135 167.836 71.7556 167.717 71.3976C167.597 71.0396 167.478 70.8011 167.239 70.6816C167.001 70.5624 166.762 70.4431 166.523 70.5624C166.285 70.6816 166.165 70.8011 166.046 71.0396C165.927 71.2783 165.927 71.7556 165.927 72.2328C165.927 72.8295 165.927 73.3067 165.927 73.6647C165.807 74.8578 165.211 75.693 164.257 75.9316C163.541 76.1703 162.825 75.9316 162.228 75.4543C161.631 74.9771 161.154 74.2612 160.916 73.1874C160.796 72.4715 160.677 71.8748 160.796 71.2783C160.916 70.6816 161.154 70.2044 161.512 69.8464C161.87 69.4887 162.228 69.1307 162.705 69.0112L163.183 71.0396C162.825 71.1591 162.586 71.3976 162.467 71.6363C162.347 71.9943 162.347 72.3522 162.467 72.71C162.586 73.068 162.705 73.4259 162.944 73.5452C163.183 73.6647 163.421 73.7839 163.66 73.6647L163.779 73.7839ZM167.359 84.5223L163.541 84.761L163.421 82.4939L174.398 81.7779L174.637 86.0734C174.637 86.9086 174.637 87.6245 174.279 88.3403C174.04 88.937 173.563 89.5335 173.086 89.8914C172.608 90.2494 171.893 90.4881 171.177 90.4881C170.103 90.6074 169.268 90.2494 168.552 89.5335C167.836 88.8177 167.478 87.8631 167.478 86.5506L167.359 84.5223ZM169.148 84.403L169.268 86.4314C169.268 87.0279 169.506 87.5051 169.745 87.7438C170.103 87.9825 170.461 88.221 170.938 88.1018C171.535 88.1018 171.893 87.8631 172.251 87.5051C172.608 87.1473 172.728 86.6699 172.728 86.1927L172.608 84.1643L169.148 84.403ZM166.285 96.0958L171.654 98.0049L171.535 100.272L163.541 96.931L163.66 94.9026L172.012 92.755L171.893 95.0221L166.285 96.0958ZM172.728 105.522L170.699 105.164L170.461 106.596L168.91 106.357L169.148 104.925L165.092 104.209C164.853 104.209 164.614 104.209 164.376 104.209C164.257 104.329 164.137 104.448 164.018 104.806C164.018 105.044 163.899 105.283 163.899 105.402L162.228 105.044C162.228 104.567 162.228 104.209 162.228 103.732C162.467 102.181 163.421 101.584 164.972 101.823L169.268 102.658L169.506 101.465L171.057 101.704L170.819 102.897L172.847 103.255L172.489 105.402L172.728 105.522Z"/>
</mask>
<path d="M20.2431 97.8856C19.7658 97.8856 19.5271 98.1242 19.2885 98.4821C19.0499 98.8401 18.9306 99.4368 18.8112 100.153C18.6919 100.988 18.4533 101.584 18.334 102.062C17.8567 103.374 17.0215 104.09 15.8284 104.209C15.2318 104.329 14.6352 104.209 14.158 103.851C13.6807 103.613 13.2034 103.136 12.8455 102.539C12.4875 101.942 12.2489 101.226 12.2489 100.51C12.1296 99.6753 12.2489 98.9594 12.4875 98.3629C12.7262 97.7662 13.0841 97.1697 13.5614 96.8117C14.0386 96.4538 14.6352 96.2152 15.2318 96.0958L15.4704 98.3629C14.9932 98.3629 14.6352 98.6014 14.3966 98.9594C14.158 99.3173 14.0386 99.7946 14.158 100.391C14.2773 100.988 14.3966 101.346 14.6352 101.584C14.8738 101.823 15.2318 101.942 15.5897 101.942C15.9477 101.942 16.1863 101.704 16.4249 101.346C16.6636 100.988 16.7829 100.391 16.9022 99.6753C17.1408 98.3629 17.4988 97.4084 17.976 96.6925C18.4533 96.0958 19.1692 95.6186 20.0043 95.6186C20.959 95.4993 21.7942 95.7378 22.3907 96.4538C22.9874 97.0504 23.3451 98.0049 23.5838 99.3173C23.7031 100.153 23.5838 100.988 23.3451 101.704C23.1066 102.42 22.7486 103.016 22.2714 103.493C21.7942 103.971 21.1975 104.209 20.4818 104.209L20.2431 101.942C21.4362 101.823 21.9134 100.988 21.7942 99.556C21.6747 99.0788 21.5555 98.6016 21.317 98.3629C21.0782 98.1242 20.7203 98.0049 20.3623 98.0049L20.2431 97.8856ZM16.7829 88.937C16.7829 89.1757 16.7829 89.5335 16.7829 89.7722C16.7829 90.6074 17.0215 91.0846 17.6181 91.4426L22.9874 91.3233V93.4709L14.7545 93.5902V91.5618L15.7091 91.4426C14.9932 90.9653 14.5159 90.3687 14.5159 89.6529C14.5159 89.4142 14.5159 89.1757 14.6352 88.937H16.7829ZM23.2259 85.1189L22.9874 87.2666L14.7545 86.5506L14.9932 84.403L23.2259 85.1189ZM12.7262 86.5506C12.3682 86.5506 12.1296 86.4314 11.891 86.1927C11.6523 85.9541 11.6523 85.5962 11.6523 85.2382C11.6523 84.8802 11.7717 84.5223 12.0103 84.403C12.2489 84.1643 12.4875 84.1643 12.8455 84.1643C13.2034 84.1643 13.4421 84.2837 13.6807 84.5223C13.9193 84.761 13.9193 85.1189 13.9193 85.4769C13.9193 85.8347 13.8 86.1927 13.5614 86.3121C13.3228 86.5506 13.0841 86.5506 12.7262 86.5506ZM22.6294 72.3522C22.1522 72.2328 21.7942 72.3522 21.5555 72.5908C21.317 72.8295 20.959 73.3067 20.4818 74.0226C20.0043 74.7384 19.6464 75.3351 19.2885 75.693C18.334 76.7667 17.2602 77.1247 16.1863 76.8862C15.5897 76.7667 15.1125 76.4088 14.7545 76.051C14.3966 75.5736 14.158 75.0964 14.0386 74.3804C13.9193 73.6647 13.9193 72.9487 14.158 72.2328C14.3966 71.5168 14.6352 70.8011 15.1125 70.3239C15.5897 69.7272 16.067 69.3692 16.6636 69.25C17.2602 69.0112 17.8567 69.0112 18.4533 69.1307L17.976 71.3976C17.4988 71.2783 17.0215 71.3976 16.6636 71.6363C16.3056 71.8748 16.067 72.2328 15.9477 72.8295C15.8284 73.4259 15.8284 73.7839 15.9477 74.1419C16.067 74.4999 16.4249 74.7384 16.7829 74.8578C17.1408 74.9771 17.4988 74.8578 17.7374 74.4999C18.0954 74.2612 18.4533 73.7839 18.8112 73.068C19.5271 71.8748 20.1238 71.0396 20.8395 70.6816C21.5555 70.2044 22.2714 70.0852 23.1066 70.3239C24.0611 70.5624 24.6578 71.0396 25.0157 71.8748C25.3735 72.71 25.3735 73.6647 25.135 74.8578C24.8963 75.693 24.6578 76.4088 24.1805 77.0055C23.7031 77.602 23.2259 78.0794 22.6294 78.3179C22.0327 78.5566 21.317 78.5566 20.7203 78.4371L21.1975 76.1703C22.3907 76.4088 23.1066 75.9315 23.4646 74.4999C23.5838 74.0226 23.5838 73.5452 23.4646 73.1874C23.3451 72.8295 23.1066 72.5908 22.6294 72.5908V72.3522ZM28.3565 64.716C28.1178 64.716 27.8793 64.716 27.6406 64.716C27.9986 65.4319 27.9986 66.1477 27.7598 66.9829C27.5213 67.6988 27.0439 68.2955 26.3282 68.6535C25.7315 69.0112 25.0157 69.0112 24.419 68.7727C23.5838 68.4148 23.1066 67.9375 22.8679 67.1023C22.6294 66.3864 22.7486 65.4319 23.2259 64.2388L23.5838 63.2841L23.1066 63.1648C22.7486 63.0456 22.3907 63.0456 22.1522 63.1648C21.9134 63.2841 21.6747 63.5228 21.5555 63.8808C21.4362 64.2388 21.4362 64.4773 21.4362 64.8352C21.5555 65.074 21.6747 65.3125 22.0327 65.4319L21.1975 67.4603C20.7203 67.3408 20.3623 66.9829 20.1238 66.6251C19.8851 66.1477 19.7658 65.6705 19.6464 65.074C19.6464 64.4773 19.7658 63.8808 20.0043 63.2841C20.3623 62.3297 20.8395 61.7332 21.5555 61.2559C22.2714 60.898 22.9874 60.898 23.8226 61.1365L27.1634 62.4489C27.8793 62.6876 28.4758 62.8069 28.953 62.8069H29.0723L28.2371 64.8352L28.3565 64.716ZM26.3282 65.9092C26.4474 65.5512 26.4474 65.3125 26.4474 64.9547C26.4474 64.5967 26.3282 64.358 26.0894 64.2388L24.777 63.7615L24.5383 64.4773C24.1805 65.5512 24.2998 66.1477 25.0157 66.5056H25.135C25.3735 66.6251 25.6122 66.6251 25.8509 66.5056C26.0894 66.3864 26.2087 66.1477 26.3282 65.9092ZM23.8226 55.2901L24.6578 55.6481C24.2998 54.8129 24.419 53.8582 24.8963 53.023C25.3735 52.3073 25.8509 51.83 26.5667 51.7106C27.1634 51.5913 27.9986 51.83 28.8338 52.3073L33.487 54.9321L32.4133 56.8412L27.8793 54.2162C27.5213 53.9777 27.1634 53.8584 26.8054 53.9777C26.5667 54.0969 26.2087 54.3356 26.0894 54.6936C25.7315 55.2901 25.8509 55.7673 26.0894 56.2445L31.1006 59.1081L30.0269 61.0172L22.8679 56.9605L23.8226 55.1708V55.2901ZM27.6406 45.1482L29.311 46.3414L30.1462 45.1482L31.4586 46.1029L30.6234 47.2961L33.9642 49.6822C34.2029 49.8017 34.4414 49.9209 34.5609 49.9209C34.6802 49.9209 34.9189 49.8017 35.1574 49.4437C35.2768 49.205 35.3961 49.0857 35.5154 48.847L36.8278 49.8017C36.7085 50.2789 36.4698 50.6369 36.2313 50.9948C35.3961 52.3073 34.2029 52.4265 33.0098 51.5913L29.4302 49.0857L28.7145 50.0402L27.4019 49.0857L28.1178 48.1313L26.4474 46.9381L27.7598 45.1482H27.6406ZM33.6062 42.1654C33.487 41.3302 33.6062 40.495 34.2029 39.7791C35.3961 38.4666 36.7085 38.3474 38.3789 39.7791L42.4357 43.2393L41.0038 44.9097L37.0665 41.5689C36.7085 41.211 36.3506 41.0915 36.112 41.0915C35.7541 41.0915 35.5154 41.3302 35.1574 41.6882C34.7994 42.1654 34.6802 42.6426 34.7994 43.2393L39.2141 47.0574L37.7824 48.7277L28.953 41.211L30.3849 39.5406L33.7257 42.4041L33.6062 42.1654ZM47.3276 38.5859C47.0889 38.4666 46.8504 38.3474 46.7309 38.2279C46.7309 39.0631 46.3731 39.6598 45.7765 40.2563C45.18 40.7337 44.464 41.0915 43.8673 41.0915C43.1516 41.0915 42.5549 40.853 42.0777 40.2563C41.4812 39.5406 41.3617 38.8246 41.4812 38.1087C41.7197 37.3927 42.1969 36.5575 43.1516 35.7223L43.8673 35.0066L43.5096 34.6486C43.2709 34.4099 43.0321 34.1714 42.6744 34.1714C42.4357 34.1714 42.0777 34.2906 41.7197 34.5292C41.4812 34.7679 41.2425 35.0066 41.2425 35.2451C41.2425 35.4838 41.2425 35.7223 41.4812 35.961L39.8108 37.3927C39.4528 37.035 39.3334 36.5575 39.3334 36.0803C39.3334 35.6031 39.4528 35.1258 39.6913 34.5292C39.9301 34.0519 40.288 33.5747 40.8845 33.0975C41.6005 32.3815 42.4357 32.143 43.1516 32.143C43.9868 32.143 44.5833 32.501 45.18 33.2167L47.5661 35.961C48.0435 36.5575 48.5208 36.9155 48.998 37.035L49.1173 37.1542L47.4469 38.5859H47.3276ZM44.9413 38.5859C45.18 38.3474 45.4185 38.1087 45.4185 37.8702C45.5379 37.6314 45.5379 37.2735 45.5379 37.035L44.5833 35.961L43.9868 36.4383C43.1516 37.1542 42.9129 37.8702 43.3901 38.4666L43.5096 38.5859C43.7481 38.8246 43.8673 38.9439 44.2253 38.9439C44.464 38.9439 44.7025 38.8246 44.9413 38.5859ZM47.2083 28.2055L47.8048 28.9215C47.8048 27.9668 48.2821 27.2511 49.1173 26.6544C49.8332 26.1772 50.5491 25.9387 51.1456 26.1772C51.7423 26.2964 52.4581 26.8931 53.0547 27.6091L56.1568 31.9043L54.3672 33.2167L51.2649 28.9215C51.0264 28.5635 50.6684 28.3248 50.4297 28.3248C50.1912 28.3248 49.8332 28.3248 49.4752 28.6828C48.998 29.0407 48.7593 29.518 48.7593 30.1147L52.1001 34.8871L50.3104 36.1998L45.5379 29.518L47.2083 28.3248V28.2055ZM62.1227 28.8022C62.0034 28.6828 61.7647 28.4443 61.6454 28.2055C61.4067 28.9215 60.9295 29.518 60.2136 29.8759C59.4978 30.2339 58.7819 30.3532 58.0659 30.1147C57.35 29.8759 56.8728 29.518 56.5148 28.9215C56.1568 28.0863 56.1568 27.3703 56.5148 26.6544C56.8728 25.9387 57.5887 25.342 58.6624 24.7455L59.6171 24.2681L59.3784 23.9103C59.2591 23.5523 59.0204 23.3136 58.6624 23.1943C58.4239 23.0751 58.0659 23.0751 57.708 23.3136C57.35 23.4329 57.1115 23.6716 56.992 23.9103C56.8728 24.1488 56.8728 24.3875 56.992 24.7455L55.0831 25.6999C54.8444 25.2227 54.8444 24.8647 54.8444 24.2681C54.9637 23.7908 55.2024 23.3136 55.5603 22.8364C55.9183 22.3591 56.3955 22.0012 56.992 21.7625C57.9467 21.2852 58.7819 21.166 59.4978 21.4045C60.2136 21.6432 60.8102 22.1204 61.2875 22.9556L62.8386 26.1772C63.1966 26.8931 63.5544 27.3703 63.9123 27.6091V27.7283L61.884 28.6828L62.1227 28.8022ZM59.8556 28.2055C60.0943 28.0863 60.333 27.8476 60.5715 27.6091C60.6908 27.3703 60.8102 27.1316 60.8102 26.7739L60.2136 25.4612L59.4978 25.8192C58.5432 26.2964 58.1852 26.8931 58.4239 27.6091V27.7283C58.5432 27.9668 58.7819 28.0863 59.0204 28.2055C59.2591 28.3248 59.4978 28.2055 59.8556 28.0863V28.2055ZM67.8498 26.1772L65.8214 27.0124L61.1682 16.274L63.1966 15.4388L67.8498 26.1772ZM74.4121 24.0295C74.2929 23.9103 74.1734 23.6716 73.9349 23.4329C73.5769 24.1488 72.9803 24.626 72.2645 24.8647C71.5486 25.1033 70.8326 25.1033 70.1167 24.7455C69.5202 24.5068 69.043 24.0295 68.8043 23.3136C68.5657 22.4784 68.685 21.7625 69.1622 21.166C69.6395 20.5693 70.4747 19.9728 71.6678 19.6148L72.6223 19.2569L72.503 18.7797C72.3838 18.4217 72.2645 18.1831 71.9065 18.0638C71.6678 17.9444 71.3099 17.9444 70.9519 18.0638C70.5941 18.1831 70.3554 18.3024 70.2361 18.541C70.1167 18.7797 70.1167 19.0183 70.1167 19.3762L67.9691 20.0921C67.8498 19.6148 67.8498 19.1376 67.9691 18.6603C68.0883 18.1831 68.4463 17.7058 68.9235 17.3479C69.4009 16.9899 69.8782 16.632 70.5941 16.5127C71.5486 16.1547 72.3838 16.1547 73.0997 16.5127C73.8155 16.8706 74.2929 17.4672 74.6507 18.3024L75.7246 21.6432C75.9633 22.3591 76.2018 22.9556 76.5598 23.1943V23.3136L74.4121 24.0295ZM72.2645 23.0751C72.6223 22.9556 72.861 22.8364 73.0997 22.5977C73.3382 22.3591 73.4577 22.1204 73.4577 21.8819L72.9803 20.5693L72.1451 20.808C71.0713 21.166 70.7134 21.6432 70.8326 22.4784V22.5977C70.9519 22.8364 71.0713 23.0751 71.3099 23.1943C71.5486 23.3136 71.7871 23.3136 72.1451 23.1943L72.2645 23.0751ZM80.7358 19.2569L80.1393 20.2115L80.4972 22.7171L78.3494 23.0751L76.4405 11.6208L78.5881 11.2628L79.662 17.5865L80.0198 16.9899L81.6904 14.2457L84.3153 13.7684L81.9289 17.5865L85.8664 21.7625L83.3608 22.1204L80.7358 19.2569ZM91.2356 19.1376C91.2356 18.899 91.1163 18.6603 90.7584 18.541C90.5196 18.4217 90.0424 18.3024 89.4457 18.1831C87.4176 17.9444 86.4629 17.1092 86.3437 15.9161C86.3437 15.2002 86.5822 14.6036 87.1788 14.0071C87.7753 13.5298 88.4913 13.1718 89.5652 13.1718C90.6389 13.1718 91.4741 13.2912 92.0708 13.7684C92.6673 14.2457 93.0252 14.8423 93.1445 15.6775L90.9969 15.7968C90.9969 15.4388 90.8776 15.2002 90.6389 15.0809C90.4004 14.8423 90.1617 14.8423 89.6844 14.8423C89.3265 14.8423 89.088 14.9616 88.8492 15.0809C88.6105 15.3195 88.6105 15.4388 88.6105 15.6775C88.6105 15.9161 88.73 16.1547 88.9685 16.274C89.2072 16.3934 89.5652 16.5127 90.1617 16.632C90.7584 16.7513 91.2356 16.7513 91.5936 16.8706C92.7867 17.2286 93.3832 17.9445 93.5025 19.0183C93.5025 19.7341 93.264 20.3308 92.6673 20.9273C92.0708 21.4045 91.2356 21.7625 90.2809 21.7625C89.5652 21.7625 88.9685 21.7625 88.372 21.5239C87.7753 21.2852 87.4174 21.0467 87.0596 20.5693C86.7016 20.2115 86.5822 19.7341 86.5822 19.2569L88.6105 19.1376C88.6105 19.4956 88.8492 19.8535 89.088 19.9728C89.3265 20.2115 89.6844 20.2115 90.1617 20.2115C90.6389 20.2115 90.8776 20.0921 91.1163 19.9728C91.3548 19.8535 91.4741 19.6148 91.3548 19.3762L91.2356 19.1376ZM98.0364 14.2457C98.6331 13.6491 99.4683 13.2912 100.304 13.4105C102.093 13.5298 102.928 14.6036 102.69 16.7513L102.213 22.0012L100.065 21.7625L100.542 16.632C100.542 16.1547 100.542 15.7968 100.304 15.5581C100.065 15.3195 99.8263 15.2002 99.3491 15.0809C98.7524 15.0809 98.2752 15.2002 97.9172 15.6775L97.4399 21.5239L95.2923 21.2852L96.2468 9.7117L98.3944 9.95033L98.0364 14.2457ZM108.178 14.6036L108.059 15.5581C108.775 14.9616 109.61 14.8423 110.565 15.0809C111.638 15.3195 112.235 15.9161 112.354 16.7513C113.07 16.0354 114.025 15.7968 115.099 16.0354C115.934 16.274 116.53 16.632 116.888 17.2286C117.246 17.8251 117.246 18.6603 117.008 19.6148L115.815 24.7455L113.667 24.2681L114.86 19.1376C114.979 18.6603 114.979 18.3024 114.86 18.0638C114.741 17.8251 114.502 17.5865 114.025 17.5865C113.428 17.4672 112.832 17.5865 112.474 18.1831L111.161 23.6716L109.013 23.1943L110.207 18.0638C110.326 17.5865 110.326 17.2286 110.207 16.9899C110.087 16.7513 109.729 16.5127 109.371 16.5127C108.775 16.3934 108.298 16.5127 107.94 16.9899L106.627 22.5977L104.48 22.1204L106.389 14.1264L108.417 14.6036H108.178ZM119.752 26.5351L117.723 25.6999L120.706 18.0638L122.735 18.899L119.752 26.5351ZM121.422 16.0354C121.542 15.6775 121.78 15.5581 122.019 15.4388C122.257 15.3195 122.615 15.3195 122.973 15.4388C123.331 15.5581 123.57 15.7968 123.689 16.0354C123.809 16.274 123.809 16.632 123.689 16.8706C123.57 17.2286 123.331 17.3479 123.093 17.4672C122.854 17.5865 122.496 17.5865 122.138 17.4672C121.78 17.3479 121.542 17.1092 121.422 16.8706C121.303 16.632 121.303 16.274 121.422 16.0354ZM130.61 29.2795C130.729 29.0407 130.729 28.8022 130.61 28.5635C130.49 28.3248 130.132 27.9668 129.655 27.6091C128.104 26.2964 127.746 25.1033 128.343 24.0295C128.7 23.4329 129.297 22.9556 130.013 22.8364C130.729 22.7171 131.564 22.8364 132.399 23.3136C133.354 23.7908 133.95 24.3875 134.189 25.2227C134.547 25.9387 134.428 26.6544 134.07 27.3703L132.161 26.2964C132.28 26.0579 132.399 25.6999 132.28 25.4612C132.161 25.2227 131.922 24.984 131.564 24.7455C131.206 24.5068 130.968 24.5068 130.729 24.5068C130.49 24.5068 130.252 24.7455 130.132 24.8647C130.013 25.1033 130.013 25.342 130.132 25.5807C130.252 25.8192 130.49 26.1772 130.968 26.5351C131.445 26.8931 131.683 27.2511 132.041 27.4896C132.876 28.4443 132.996 29.3987 132.519 30.2339C132.161 30.8304 131.564 31.3078 130.848 31.3078C130.013 31.4271 129.178 31.1884 128.343 30.7111C127.746 30.3532 127.269 29.9952 126.911 29.518C126.553 29.0407 126.314 28.5635 126.314 27.9668C126.314 27.4896 126.314 27.0124 126.553 26.5351L128.343 27.4896C128.223 27.8476 128.104 28.2055 128.343 28.4443C128.462 28.8022 128.7 29.0407 129.178 29.2795C129.536 29.518 129.894 29.518 130.132 29.518C130.371 29.518 130.61 29.3987 130.729 29.16L130.61 29.2795ZM141.229 34.6486C140.513 35.6031 139.558 36.319 138.723 36.5575C137.768 36.7962 136.933 36.677 136.217 36.0803C135.502 35.6031 135.263 34.8871 135.144 34.1714L132.757 37.2735L130.968 35.961L137.888 27.0124L139.558 28.2055L139.081 28.9215C139.916 28.6828 140.632 28.9215 141.348 29.3987C142.183 29.9952 142.541 30.8304 142.541 31.7851C142.541 32.7395 142.183 33.694 141.348 34.7679L141.229 34.8871V34.6486ZM139.558 33.2167C140.036 32.6202 140.274 32.0236 140.274 31.5463C140.274 31.0691 140.155 30.5919 139.678 30.3532C139.081 29.8759 138.604 29.8759 138.126 30.1147L136.098 32.7395C135.979 33.3362 136.217 33.8134 136.695 34.2906C137.53 34.8871 138.484 34.5292 139.558 33.2167ZM141.706 40.6143L140.155 39.0631L145.763 33.0975L147.314 34.6486L141.706 40.6143ZM147.075 31.5463C147.314 31.3078 147.552 31.1884 147.91 31.1884C148.268 31.1884 148.507 31.3078 148.745 31.5463C148.984 31.7851 149.103 32.143 149.223 32.3815C149.223 32.7395 149.103 32.9782 148.865 33.2167C148.626 33.4554 148.388 33.5747 148.03 33.5747C147.672 33.5747 147.433 33.4554 147.194 33.2167C146.956 32.9782 146.836 32.6202 146.717 32.3815C146.717 32.0236 146.836 31.7851 147.075 31.5463ZM150.893 38.2279L150.177 38.9439C151.132 38.9439 151.967 39.3018 152.564 40.0178C153.16 40.7337 153.399 41.3302 153.279 42.0462C153.16 42.6426 152.683 43.3586 151.967 44.0745L147.91 47.5346L146.478 45.8642L150.416 42.4041C150.774 42.0462 151.012 41.8074 151.012 41.5689C151.012 41.3302 150.893 40.9722 150.535 40.6143C150.177 40.137 149.581 40.0178 148.984 40.137L144.569 43.9551L143.138 42.2847L149.342 36.9155L150.654 38.4666L150.893 38.2279ZM157.097 45.8642L156.382 46.4609C157.336 46.4609 158.052 46.9381 158.649 47.7733C159.126 48.489 159.365 49.205 159.126 49.8017C159.007 50.3981 158.41 51.1141 157.694 51.7106L153.399 54.8129L152.086 53.023L156.382 49.9209C156.739 49.6822 156.978 49.3242 156.978 49.0857C156.978 48.847 156.978 48.489 156.62 48.1313C156.262 47.6538 155.785 47.4153 155.189 47.4153L150.416 50.7561L149.103 48.9665L155.785 44.1938L156.978 45.8642H157.097ZM155.904 59.9433C155.427 58.8696 155.308 57.7957 155.546 56.8412C155.904 55.8866 156.62 55.0514 157.694 54.4549L157.933 54.3356C158.649 53.9777 159.365 53.7389 160.08 53.7389C160.796 53.7389 161.512 53.8584 161.989 54.3356C162.586 54.6936 163.063 55.1708 163.302 55.8866C163.779 56.8412 163.899 57.7957 163.541 58.7501C163.183 59.5853 162.467 60.4205 161.273 60.898L160.438 61.2559L158.052 56.6025C157.575 56.9605 157.336 57.3185 157.217 57.7957C157.097 58.2729 157.097 58.7501 157.336 59.2276C157.694 59.9433 158.291 60.4205 159.007 60.54L158.41 62.0911C157.813 61.9717 157.336 61.7332 156.859 61.3752C156.382 61.0172 156.024 60.54 155.666 59.8241L155.904 59.9433ZM161.87 56.722C161.631 56.364 161.393 56.1253 161.035 56.006C160.677 55.8866 160.2 55.8866 159.723 56.1253L161.035 58.8696L161.154 58.7501C161.631 58.5116 161.87 58.2729 161.989 57.9149C162.109 57.5572 162.109 57.1992 161.87 56.722ZM165.688 66.5056C165.569 66.2671 165.569 65.9092 165.45 65.7899C165.211 64.9547 164.734 64.5967 164.137 64.5967L159.126 66.5056L158.291 64.4773L165.927 61.6137L166.643 63.5228L165.807 63.8808C166.643 64.0001 167.239 64.4773 167.478 65.1932C167.597 65.4319 167.597 65.6705 167.597 65.9092L165.569 66.6251L165.688 66.5056ZM163.779 73.7839C164.018 73.6647 164.257 73.5452 164.257 73.1874C164.376 72.9487 164.376 72.4715 164.376 71.8748C164.257 69.8464 164.853 68.7727 166.046 68.4148C166.762 68.176 167.359 68.4148 168.075 68.7727C168.671 69.25 169.148 69.9659 169.387 70.9204C169.626 71.8748 169.626 72.8295 169.268 73.5452C168.91 74.2611 168.432 74.7384 167.597 74.9771L167.001 72.8295C167.359 72.71 167.478 72.5908 167.717 72.3522C167.836 72.1135 167.836 71.7556 167.717 71.3976C167.597 71.0396 167.478 70.8011 167.239 70.6816C167.001 70.5624 166.762 70.4431 166.523 70.5624C166.285 70.6816 166.165 70.8011 166.046 71.0396C165.927 71.2783 165.927 71.7556 165.927 72.2328C165.927 72.8295 165.927 73.3067 165.927 73.6647C165.807 74.8578 165.211 75.693 164.257 75.9316C163.541 76.1703 162.825 75.9316 162.228 75.4543C161.631 74.9771 161.154 74.2612 160.916 73.1874C160.796 72.4715 160.677 71.8748 160.796 71.2783C160.916 70.6816 161.154 70.2044 161.512 69.8464C161.87 69.4887 162.228 69.1307 162.705 69.0112L163.183 71.0396C162.825 71.1591 162.586 71.3976 162.467 71.6363C162.347 71.9943 162.347 72.3522 162.467 72.71C162.586 73.068 162.705 73.4259 162.944 73.5452C163.183 73.6647 163.421 73.7839 163.66 73.6647L163.779 73.7839ZM167.359 84.5223L163.541 84.761L163.421 82.4939L174.398 81.7779L174.637 86.0734C174.637 86.9086 174.637 87.6245 174.279 88.3403C174.04 88.937 173.563 89.5335 173.086 89.8914C172.608 90.2494 171.893 90.4881 171.177 90.4881C170.103 90.6074 169.268 90.2494 168.552 89.5335C167.836 88.8177 167.478 87.8631 167.478 86.5506L167.359 84.5223ZM169.148 84.403L169.268 86.4314C169.268 87.0279 169.506 87.5051 169.745 87.7438C170.103 87.9825 170.461 88.221 170.938 88.1018C171.535 88.1018 171.893 87.8631 172.251 87.5051C172.608 87.1473 172.728 86.6699 172.728 86.1927L172.608 84.1643L169.148 84.403ZM166.285 96.0958L171.654 98.0049L171.535 100.272L163.541 96.931L163.66 94.9026L172.012 92.755L171.893 95.0221L166.285 96.0958ZM172.728 105.522L170.699 105.164L170.461 106.596L168.91 106.357L169.148 104.925L165.092 104.209C164.853 104.209 164.614 104.209 164.376 104.209C164.257 104.329 164.137 104.448 164.018 104.806C164.018 105.044 163.899 105.283 163.899 105.402L162.228 105.044C162.228 104.567 162.228 104.209 162.228 103.732C162.467 102.181 163.421 101.584 164.972 101.823L169.268 102.658L169.506 101.465L171.057 101.704L170.819 102.897L172.847 103.255L172.489 105.402L172.728 105.522Z" fill="#274C77"/>
<path d="M20.2431 97.8856C19.7658 97.8856 19.5271 98.1242 19.2885 98.4821C19.0499 98.8401 18.9306 99.4368 18.8112 100.153C18.6919 100.988 18.4533 101.584 18.334 102.062C17.8567 103.374 17.0215 104.09 15.8284 104.209C15.2318 104.329 14.6352 104.209 14.158 103.851C13.6807 103.613 13.2034 103.136 12.8455 102.539C12.4875 101.942 12.2489 101.226 12.2489 100.51C12.1296 99.6753 12.2489 98.9594 12.4875 98.3629C12.7262 97.7662 13.0841 97.1697 13.5614 96.8117C14.0386 96.4538 14.6352 96.2152 15.2318 96.0958L15.4704 98.3629C14.9932 98.3629 14.6352 98.6014 14.3966 98.9594C14.158 99.3173 14.0386 99.7946 14.158 100.391C14.2773 100.988 14.3966 101.346 14.6352 101.584C14.8738 101.823 15.2318 101.942 15.5897 101.942C15.9477 101.942 16.1863 101.704 16.4249 101.346C16.6636 100.988 16.7829 100.391 16.9022 99.6753C17.1408 98.3629 17.4988 97.4084 17.976 96.6925C18.4533 96.0958 19.1692 95.6186 20.0043 95.6186C20.959 95.4993 21.7942 95.7378 22.3907 96.4538C22.9874 97.0504 23.3451 98.0049 23.5838 99.3173C23.7031 100.153 23.5838 100.988 23.3451 101.704C23.1066 102.42 22.7486 103.016 22.2714 103.493C21.7942 103.971 21.1975 104.209 20.4818 104.209L20.2431 101.942C21.4362 101.823 21.9134 100.988 21.7942 99.556C21.6747 99.0788 21.5555 98.6016 21.317 98.3629C21.0782 98.1242 20.7203 98.0049 20.3623 98.0049L20.2431 97.8856ZM16.7829 88.937C16.7829 89.1757 16.7829 89.5335 16.7829 89.7722C16.7829 90.6074 17.0215 91.0846 17.6181 91.4426L22.9874 91.3233V93.4709L14.7545 93.5902V91.5618L15.7091 91.4426C14.9932 90.9653 14.5159 90.3687 14.5159 89.6529C14.5159 89.4142 14.5159 89.1757 14.6352 88.937H16.7829ZM23.2259 85.1189L22.9874 87.2666L14.7545 86.5506L14.9932 84.403L23.2259 85.1189ZM12.7262 86.5506C12.3682 86.5506 12.1296 86.4314 11.891 86.1927C11.6523 85.9541 11.6523 85.5962 11.6523 85.2382C11.6523 84.8802 11.7717 84.5223 12.0103 84.403C12.2489 84.1643 12.4875 84.1643 12.8455 84.1643C13.2034 84.1643 13.4421 84.2837 13.6807 84.5223C13.9193 84.761 13.9193 85.1189 13.9193 85.4769C13.9193 85.8347 13.8 86.1927 13.5614 86.3121C13.3228 86.5506 13.0841 86.5506 12.7262 86.5506ZM22.6294 72.3522C22.1522 72.2328 21.7942 72.3522 21.5555 72.5908C21.317 72.8295 20.959 73.3067 20.4818 74.0226C20.0043 74.7384 19.6464 75.3351 19.2885 75.693C18.334 76.7667 17.2602 77.1247 16.1863 76.8862C15.5897 76.7667 15.1125 76.4088 14.7545 76.051C14.3966 75.5736 14.158 75.0964 14.0386 74.3804C13.9193 73.6647 13.9193 72.9487 14.158 72.2328C14.3966 71.5168 14.6352 70.8011 15.1125 70.3239C15.5897 69.7272 16.067 69.3692 16.6636 69.25C17.2602 69.0112 17.8567 69.0112 18.4533 69.1307L17.976 71.3976C17.4988 71.2783 17.0215 71.3976 16.6636 71.6363C16.3056 71.8748 16.067 72.2328 15.9477 72.8295C15.8284 73.4259 15.8284 73.7839 15.9477 74.1419C16.067 74.4999 16.4249 74.7384 16.7829 74.8578C17.1408 74.9771 17.4988 74.8578 17.7374 74.4999C18.0954 74.2612 18.4533 73.7839 18.8112 73.068C19.5271 71.8748 20.1238 71.0396 20.8395 70.6816C21.5555 70.2044 22.2714 70.0852 23.1066 70.3239C24.0611 70.5624 24.6578 71.0396 25.0157 71.8748C25.3735 72.71 25.3735 73.6647 25.135 74.8578C24.8963 75.693 24.6578 76.4088 24.1805 77.0055C23.7031 77.602 23.2259 78.0794 22.6294 78.3179C22.0327 78.5566 21.317 78.5566 20.7203 78.4371L21.1975 76.1703C22.3907 76.4088 23.1066 75.9315 23.4646 74.4999C23.5838 74.0226 23.5838 73.5452 23.4646 73.1874C23.3451 72.8295 23.1066 72.5908 22.6294 72.5908V72.3522ZM28.3565 64.716C28.1178 64.716 27.8793 64.716 27.6406 64.716C27.9986 65.4319 27.9986 66.1477 27.7598 66.9829C27.5213 67.6988 27.0439 68.2955 26.3282 68.6535C25.7315 69.0112 25.0157 69.0112 24.419 68.7727C23.5838 68.4148 23.1066 67.9375 22.8679 67.1023C22.6294 66.3864 22.7486 65.4319 23.2259 64.2388L23.5838 63.2841L23.1066 63.1648C22.7486 63.0456 22.3907 63.0456 22.1522 63.1648C21.9134 63.2841 21.6747 63.5228 21.5555 63.8808C21.4362 64.2388 21.4362 64.4773 21.4362 64.8352C21.5555 65.074 21.6747 65.3125 22.0327 65.4319L21.1975 67.4603C20.7203 67.3408 20.3623 66.9829 20.1238 66.6251C19.8851 66.1477 19.7658 65.6705 19.6464 65.074C19.6464 64.4773 19.7658 63.8808 20.0043 63.2841C20.3623 62.3297 20.8395 61.7332 21.5555 61.2559C22.2714 60.898 22.9874 60.898 23.8226 61.1365L27.1634 62.4489C27.8793 62.6876 28.4758 62.8069 28.953 62.8069H29.0723L28.2371 64.8352L28.3565 64.716ZM26.3282 65.9092C26.4474 65.5512 26.4474 65.3125 26.4474 64.9547C26.4474 64.5967 26.3282 64.358 26.0894 64.2388L24.777 63.7615L24.5383 64.4773C24.1805 65.5512 24.2998 66.1477 25.0157 66.5056H25.135C25.3735 66.6251 25.6122 66.6251 25.8509 66.5056C26.0894 66.3864 26.2087 66.1477 26.3282 65.9092ZM23.8226 55.2901L24.6578 55.6481C24.2998 54.8129 24.419 53.8582 24.8963 53.023C25.3735 52.3073 25.8509 51.83 26.5667 51.7106C27.1634 51.5913 27.9986 51.83 28.8338 52.3073L33.487 54.9321L32.4133 56.8412L27.8793 54.2162C27.5213 53.9777 27.1634 53.8584 26.8054 53.9777C26.5667 54.0969 26.2087 54.3356 26.0894 54.6936C25.7315 55.2901 25.8509 55.7673 26.0894 56.2445L31.1006 59.1081L30.0269 61.0172L22.8679 56.9605L23.8226 55.1708V55.2901ZM27.6406 45.1482L29.311 46.3414L30.1462 45.1482L31.4586 46.1029L30.6234 47.2961L33.9642 49.6822C34.2029 49.8017 34.4414 49.9209 34.5609 49.9209C34.6802 49.9209 34.9189 49.8017 35.1574 49.4437C35.2768 49.205 35.3961 49.0857 35.5154 48.847L36.8278 49.8017C36.7085 50.2789 36.4698 50.6369 36.2313 50.9948C35.3961 52.3073 34.2029 52.4265 33.0098 51.5913L29.4302 49.0857L28.7145 50.0402L27.4019 49.0857L28.1178 48.1313L26.4474 46.9381L27.7598 45.1482H27.6406ZM33.6062 42.1654C33.487 41.3302 33.6062 40.495 34.2029 39.7791C35.3961 38.4666 36.7085 38.3474 38.3789 39.7791L42.4357 43.2393L41.0038 44.9097L37.0665 41.5689C36.7085 41.211 36.3506 41.0915 36.112 41.0915C35.7541 41.0915 35.5154 41.3302 35.1574 41.6882C34.7994 42.1654 34.6802 42.6426 34.7994 43.2393L39.2141 47.0574L37.7824 48.7277L28.953 41.211L30.3849 39.5406L33.7257 42.4041L33.6062 42.1654ZM47.3276 38.5859C47.0889 38.4666 46.8504 38.3474 46.7309 38.2279C46.7309 39.0631 46.3731 39.6598 45.7765 40.2563C45.18 40.7337 44.464 41.0915 43.8673 41.0915C43.1516 41.0915 42.5549 40.853 42.0777 40.2563C41.4812 39.5406 41.3617 38.8246 41.4812 38.1087C41.7197 37.3927 42.1969 36.5575 43.1516 35.7223L43.8673 35.0066L43.5096 34.6486C43.2709 34.4099 43.0321 34.1714 42.6744 34.1714C42.4357 34.1714 42.0777 34.2906 41.7197 34.5292C41.4812 34.7679 41.2425 35.0066 41.2425 35.2451C41.2425 35.4838 41.2425 35.7223 41.4812 35.961L39.8108 37.3927C39.4528 37.035 39.3334 36.5575 39.3334 36.0803C39.3334 35.6031 39.4528 35.1258 39.6913 34.5292C39.9301 34.0519 40.288 33.5747 40.8845 33.0975C41.6005 32.3815 42.4357 32.143 43.1516 32.143C43.9868 32.143 44.5833 32.501 45.18 33.2167L47.5661 35.961C48.0435 36.5575 48.5208 36.9155 48.998 37.035L49.1173 37.1542L47.4469 38.5859H47.3276ZM44.9413 38.5859C45.18 38.3474 45.4185 38.1087 45.4185 37.8702C45.5379 37.6314 45.5379 37.2735 45.5379 37.035L44.5833 35.961L43.9868 36.4383C43.1516 37.1542 42.9129 37.8702 43.3901 38.4666L43.5096 38.5859C43.7481 38.8246 43.8673 38.9439 44.2253 38.9439C44.464 38.9439 44.7025 38.8246 44.9413 38.5859ZM47.2083 28.2055L47.8048 28.9215C47.8048 27.9668 48.2821 27.2511 49.1173 26.6544C49.8332 26.1772 50.5491 25.9387 51.1456 26.1772C51.7423 26.2964 52.4581 26.8931 53.0547 27.6091L56.1568 31.9043L54.3672 33.2167L51.2649 28.9215C51.0264 28.5635 50.6684 28.3248 50.4297 28.3248C50.1912 28.3248 49.8332 28.3248 49.4752 28.6828C48.998 29.0407 48.7593 29.518 48.7593 30.1147L52.1001 34.8871L50.3104 36.1998L45.5379 29.518L47.2083 28.3248V28.2055ZM62.1227 28.8022C62.0034 28.6828 61.7647 28.4443 61.6454 28.2055C61.4067 28.9215 60.9295 29.518 60.2136 29.8759C59.4978 30.2339 58.7819 30.3532 58.0659 30.1147C57.35 29.8759 56.8728 29.518 56.5148 28.9215C56.1568 28.0863 56.1568 27.3703 56.5148 26.6544C56.8728 25.9387 57.5887 25.342 58.6624 24.7455L59.6171 24.2681L59.3784 23.9103C59.2591 23.5523 59.0204 23.3136 58.6624 23.1943C58.4239 23.0751 58.0659 23.0751 57.708 23.3136C57.35 23.4329 57.1115 23.6716 56.992 23.9103C56.8728 24.1488 56.8728 24.3875 56.992 24.7455L55.0831 25.6999C54.8444 25.2227 54.8444 24.8647 54.8444 24.2681C54.9637 23.7908 55.2024 23.3136 55.5603 22.8364C55.9183 22.3591 56.3955 22.0012 56.992 21.7625C57.9467 21.2852 58.7819 21.166 59.4978 21.4045C60.2136 21.6432 60.8102 22.1204 61.2875 22.9556L62.8386 26.1772C63.1966 26.8931 63.5544 27.3703 63.9123 27.6091V27.7283L61.884 28.6828L62.1227 28.8022ZM59.8556 28.2055C60.0943 28.0863 60.333 27.8476 60.5715 27.6091C60.6908 27.3703 60.8102 27.1316 60.8102 26.7739L60.2136 25.4612L59.4978 25.8192C58.5432 26.2964 58.1852 26.8931 58.4239 27.6091V27.7283C58.5432 27.9668 58.7819 28.0863 59.0204 28.2055C59.2591 28.3248 59.4978 28.2055 59.8556 28.0863V28.2055ZM67.8498 26.1772L65.8214 27.0124L61.1682 16.274L63.1966 15.4388L67.8498 26.1772ZM74.4121 24.0295C74.2929 23.9103 74.1734 23.6716 73.9349 23.4329C73.5769 24.1488 72.9803 24.626 72.2645 24.8647C71.5486 25.1033 70.8326 25.1033 70.1167 24.7455C69.5202 24.5068 69.043 24.0295 68.8043 23.3136C68.5657 22.4784 68.685 21.7625 69.1622 21.166C69.6395 20.5693 70.4747 19.9728 71.6678 19.6148L72.6223 19.2569L72.503 18.7797C72.3838 18.4217 72.2645 18.1831 71.9065 18.0638C71.6678 17.9444 71.3099 17.9444 70.9519 18.0638C70.5941 18.1831 70.3554 18.3024 70.2361 18.541C70.1167 18.7797 70.1167 19.0183 70.1167 19.3762L67.9691 20.0921C67.8498 19.6148 67.8498 19.1376 67.9691 18.6603C68.0883 18.1831 68.4463 17.7058 68.9235 17.3479C69.4009 16.9899 69.8782 16.632 70.5941 16.5127C71.5486 16.1547 72.3838 16.1547 73.0997 16.5127C73.8155 16.8706 74.2929 17.4672 74.6507 18.3024L75.7246 21.6432C75.9633 22.3591 76.2018 22.9556 76.5598 23.1943V23.3136L74.4121 24.0295ZM72.2645 23.0751C72.6223 22.9556 72.861 22.8364 73.0997 22.5977C73.3382 22.3591 73.4577 22.1204 73.4577 21.8819L72.9803 20.5693L72.1451 20.808C71.0713 21.166 70.7134 21.6432 70.8326 22.4784V22.5977C70.9519 22.8364 71.0713 23.0751 71.3099 23.1943C71.5486 23.3136 71.7871 23.3136 72.1451 23.1943L72.2645 23.0751ZM80.7358 19.2569L80.1393 20.2115L80.4972 22.7171L78.3494 23.0751L76.4405 11.6208L78.5881 11.2628L79.662 17.5865L80.0198 16.9899L81.6904 14.2457L84.3153 13.7684L81.9289 17.5865L85.8664 21.7625L83.3608 22.1204L80.7358 19.2569ZM91.2356 19.1376C91.2356 18.899 91.1163 18.6603 90.7584 18.541C90.5196 18.4217 90.0424 18.3024 89.4457 18.1831C87.4176 17.9444 86.4629 17.1092 86.3437 15.9161C86.3437 15.2002 86.5822 14.6036 87.1788 14.0071C87.7753 13.5298 88.4913 13.1718 89.5652 13.1718C90.6389 13.1718 91.4741 13.2912 92.0708 13.7684C92.6673 14.2457 93.0252 14.8423 93.1445 15.6775L90.9969 15.7968C90.9969 15.4388 90.8776 15.2002 90.6389 15.0809C90.4004 14.8423 90.1617 14.8423 89.6844 14.8423C89.3265 14.8423 89.088 14.9616 88.8492 15.0809C88.6105 15.3195 88.6105 15.4388 88.6105 15.6775C88.6105 15.9161 88.73 16.1547 88.9685 16.274C89.2072 16.3934 89.5652 16.5127 90.1617 16.632C90.7584 16.7513 91.2356 16.7513 91.5936 16.8706C92.7867 17.2286 93.3832 17.9445 93.5025 19.0183C93.5025 19.7341 93.264 20.3308 92.6673 20.9273C92.0708 21.4045 91.2356 21.7625 90.2809 21.7625C89.5652 21.7625 88.9685 21.7625 88.372 21.5239C87.7753 21.2852 87.4174 21.0467 87.0596 20.5693C86.7016 20.2115 86.5822 19.7341 86.5822 19.2569L88.6105 19.1376C88.6105 19.4956 88.8492 19.8535 89.088 19.9728C89.3265 20.2115 89.6844 20.2115 90.1617 20.2115C90.6389 20.2115 90.8776 20.0921 91.1163 19.9728C91.3548 19.8535 91.4741 19.6148 91.3548 19.3762L91.2356 19.1376ZM98.0364 14.2457C98.6331 13.6491 99.4683 13.2912 100.304 13.4105C102.093 13.5298 102.928 14.6036 102.69 16.7513L102.213 22.0012L100.065 21.7625L100.542 16.632C100.542 16.1547 100.542 15.7968 100.304 15.5581C100.065 15.3195 99.8263 15.2002 99.3491 15.0809C98.7524 15.0809 98.2752 15.2002 97.9172 15.6775L97.4399 21.5239L95.2923 21.2852L96.2468 9.7117L98.3944 9.95033L98.0364 14.2457ZM108.178 14.6036L108.059 15.5581C108.775 14.9616 109.61 14.8423 110.565 15.0809C111.638 15.3195 112.235 15.9161 112.354 16.7513C113.07 16.0354 114.025 15.7968 115.099 16.0354C115.934 16.274 116.53 16.632 116.888 17.2286C117.246 17.8251 117.246 18.6603 117.008 19.6148L115.815 24.7455L113.667 24.2681L114.86 19.1376C114.979 18.6603 114.979 18.3024 114.86 18.0638C114.741 17.8251 114.502 17.5865 114.025 17.5865C113.428 17.4672 112.832 17.5865 112.474 18.1831L111.161 23.6716L109.013 23.1943L110.207 18.0638C110.326 17.5865 110.326 17.2286 110.207 16.9899C110.087 16.7513 109.729 16.5127 109.371 16.5127C108.775 16.3934 108.298 16.5127 107.94 16.9899L106.627 22.5977L104.48 22.1204L106.389 14.1264L108.417 14.6036H108.178ZM119.752 26.5351L117.723 25.6999L120.706 18.0638L122.735 18.899L119.752 26.5351ZM121.422 16.0354C121.542 15.6775 121.78 15.5581 122.019 15.4388C122.257 15.3195 122.615 15.3195 122.973 15.4388C123.331 15.5581 123.57 15.7968 123.689 16.0354C123.809 16.274 123.809 16.632 123.689 16.8706C123.57 17.2286 123.331 17.3479 123.093 17.4672C122.854 17.5865 122.496 17.5865 122.138 17.4672C121.78 17.3479 121.542 17.1092 121.422 16.8706C121.303 16.632 121.303 16.274 121.422 16.0354ZM130.61 29.2795C130.729 29.0407 130.729 28.8022 130.61 28.5635C130.49 28.3248 130.132 27.9668 129.655 27.6091C128.104 26.2964 127.746 25.1033 128.343 24.0295C128.7 23.4329 129.297 22.9556 130.013 22.8364C130.729 22.7171 131.564 22.8364 132.399 23.3136C133.354 23.7908 133.95 24.3875 134.189 25.2227C134.547 25.9387 134.428 26.6544 134.07 27.3703L132.161 26.2964C132.28 26.0579 132.399 25.6999 132.28 25.4612C132.161 25.2227 131.922 24.984 131.564 24.7455C131.206 24.5068 130.968 24.5068 130.729 24.5068C130.49 24.5068 130.252 24.7455 130.132 24.8647C130.013 25.1033 130.013 25.342 130.132 25.5807C130.252 25.8192 130.49 26.1772 130.968 26.5351C131.445 26.8931 131.683 27.2511 132.041 27.4896C132.876 28.4443 132.996 29.3987 132.519 30.2339C132.161 30.8304 131.564 31.3078 130.848 31.3078C130.013 31.4271 129.178 31.1884 128.343 30.7111C127.746 30.3532 127.269 29.9952 126.911 29.518C126.553 29.0407 126.314 28.5635 126.314 27.9668C126.314 27.4896 126.314 27.0124 126.553 26.5351L128.343 27.4896C128.223 27.8476 128.104 28.2055 128.343 28.4443C128.462 28.8022 128.7 29.0407 129.178 29.2795C129.536 29.518 129.894 29.518 130.132 29.518C130.371 29.518 130.61 29.3987 130.729 29.16L130.61 29.2795ZM141.229 34.6486C140.513 35.6031 139.558 36.319 138.723 36.5575C137.768 36.7962 136.933 36.677 136.217 36.0803C135.502 35.6031 135.263 34.8871 135.144 34.1714L132.757 37.2735L130.968 35.961L137.888 27.0124L139.558 28.2055L139.081 28.9215C139.916 28.6828 140.632 28.9215 141.348 29.3987C142.183 29.9952 142.541 30.8304 142.541 31.7851C142.541 32.7395 142.183 33.694 141.348 34.7679L141.229 34.8871V34.6486ZM139.558 33.2167C140.036 32.6202 140.274 32.0236 140.274 31.5463C140.274 31.0691 140.155 30.5919 139.678 30.3532C139.081 29.8759 138.604 29.8759 138.126 30.1147L136.098 32.7395C135.979 33.3362 136.217 33.8134 136.695 34.2906C137.53 34.8871 138.484 34.5292 139.558 33.2167ZM141.706 40.6143L140.155 39.0631L145.763 33.0975L147.314 34.6486L141.706 40.6143ZM147.075 31.5463C147.314 31.3078 147.552 31.1884 147.91 31.1884C148.268 31.1884 148.507 31.3078 148.745 31.5463C148.984 31.7851 149.103 32.143 149.223 32.3815C149.223 32.7395 149.103 32.9782 148.865 33.2167C148.626 33.4554 148.388 33.5747 148.03 33.5747C147.672 33.5747 147.433 33.4554 147.194 33.2167C146.956 32.9782 146.836 32.6202 146.717 32.3815C146.717 32.0236 146.836 31.7851 147.075 31.5463ZM150.893 38.2279L150.177 38.9439C151.132 38.9439 151.967 39.3018 152.564 40.0178C153.16 40.7337 153.399 41.3302 153.279 42.0462C153.16 42.6426 152.683 43.3586 151.967 44.0745L147.91 47.5346L146.478 45.8642L150.416 42.4041C150.774 42.0462 151.012 41.8074 151.012 41.5689C151.012 41.3302 150.893 40.9722 150.535 40.6143C150.177 40.137 149.581 40.0178 148.984 40.137L144.569 43.9551L143.138 42.2847L149.342 36.9155L150.654 38.4666L150.893 38.2279ZM157.097 45.8642L156.382 46.4609C157.336 46.4609 158.052 46.9381 158.649 47.7733C159.126 48.489 159.365 49.205 159.126 49.8017C159.007 50.3981 158.41 51.1141 157.694 51.7106L153.399 54.8129L152.086 53.023L156.382 49.9209C156.739 49.6822 156.978 49.3242 156.978 49.0857C156.978 48.847 156.978 48.489 156.62 48.1313C156.262 47.6538 155.785 47.4153 155.189 47.4153L150.416 50.7561L149.103 48.9665L155.785 44.1938L156.978 45.8642H157.097ZM155.904 59.9433C155.427 58.8696 155.308 57.7957 155.546 56.8412C155.904 55.8866 156.62 55.0514 157.694 54.4549L157.933 54.3356C158.649 53.9777 159.365 53.7389 160.08 53.7389C160.796 53.7389 161.512 53.8584 161.989 54.3356C162.586 54.6936 163.063 55.1708 163.302 55.8866C163.779 56.8412 163.899 57.7957 163.541 58.7501C163.183 59.5853 162.467 60.4205 161.273 60.898L160.438 61.2559L158.052 56.6025C157.575 56.9605 157.336 57.3185 157.217 57.7957C157.097 58.2729 157.097 58.7501 157.336 59.2276C157.694 59.9433 158.291 60.4205 159.007 60.54L158.41 62.0911C157.813 61.9717 157.336 61.7332 156.859 61.3752C156.382 61.0172 156.024 60.54 155.666 59.8241L155.904 59.9433ZM161.87 56.722C161.631 56.364 161.393 56.1253 161.035 56.006C160.677 55.8866 160.2 55.8866 159.723 56.1253L161.035 58.8696L161.154 58.7501C161.631 58.5116 161.87 58.2729 161.989 57.9149C162.109 57.5572 162.109 57.1992 161.87 56.722ZM165.688 66.5056C165.569 66.2671 165.569 65.9092 165.45 65.7899C165.211 64.9547 164.734 64.5967 164.137 64.5967L159.126 66.5056L158.291 64.4773L165.927 61.6137L166.643 63.5228L165.807 63.8808C166.643 64.0001 167.239 64.4773 167.478 65.1932C167.597 65.4319 167.597 65.6705 167.597 65.9092L165.569 66.6251L165.688 66.5056ZM163.779 73.7839C164.018 73.6647 164.257 73.5452 164.257 73.1874C164.376 72.9487 164.376 72.4715 164.376 71.8748C164.257 69.8464 164.853 68.7727 166.046 68.4148C166.762 68.176 167.359 68.4148 168.075 68.7727C168.671 69.25 169.148 69.9659 169.387 70.9204C169.626 71.8748 169.626 72.8295 169.268 73.5452C168.91 74.2611 168.432 74.7384 167.597 74.9771L167.001 72.8295C167.359 72.71 167.478 72.5908 167.717 72.3522C167.836 72.1135 167.836 71.7556 167.717 71.3976C167.597 71.0396 167.478 70.8011 167.239 70.6816C167.001 70.5624 166.762 70.4431 166.523 70.5624C166.285 70.6816 166.165 70.8011 166.046 71.0396C165.927 71.2783 165.927 71.7556 165.927 72.2328C165.927 72.8295 165.927 73.3067 165.927 73.6647C165.807 74.8578 165.211 75.693 164.257 75.9316C163.541 76.1703 162.825 75.9316 162.228 75.4543C161.631 74.9771 161.154 74.2612 160.916 73.1874C160.796 72.4715 160.677 71.8748 160.796 71.2783C160.916 70.6816 161.154 70.2044 161.512 69.8464C161.87 69.4887 162.228 69.1307 162.705 69.0112L163.183 71.0396C162.825 71.1591 162.586 71.3976 162.467 71.6363C162.347 71.9943 162.347 72.3522 162.467 72.71C162.586 73.068 162.705 73.4259 162.944 73.5452C163.183 73.6647 163.421 73.7839 163.66 73.6647L163.779 73.7839ZM167.359 84.5223L163.541 84.761L163.421 82.4939L174.398 81.7779L174.637 86.0734C174.637 86.9086 174.637 87.6245 174.279 88.3403C174.04 88.937 173.563 89.5335 173.086 89.8914C172.608 90.2494 171.893 90.4881 171.177 90.4881C170.103 90.6074 169.268 90.2494 168.552 89.5335C167.836 88.8177 167.478 87.8631 167.478 86.5506L167.359 84.5223ZM169.148 84.403L169.268 86.4314C169.268 87.0279 169.506 87.5051 169.745 87.7438C170.103 87.9825 170.461 88.221 170.938 88.1018C171.535 88.1018 171.893 87.8631 172.251 87.5051C172.608 87.1473 172.728 86.6699 172.728 86.1927L172.608 84.1643L169.148 84.403ZM166.285 96.0958L171.654 98.0049L171.535 100.272L163.541 96.931L163.66 94.9026L172.012 92.755L171.893 95.0221L166.285 96.0958ZM172.728 105.522L170.699 105.164L170.461 106.596L168.91 106.357L169.148 104.925L165.092 104.209C164.853 104.209 164.614 104.209 164.376 104.209C164.257 104.329 164.137 104.448 164.018 104.806C164.018 105.044 163.899 105.283 163.899 105.402L162.228 105.044C162.228 104.567 162.228 104.209 162.228 103.732C162.467 102.181 163.421 101.584 164.972 101.823L169.268 102.658L169.506 101.465L171.057 101.704L170.819 102.897L172.847 103.255L172.489 105.402L172.728 105.522Z" stroke="#274C77" stroke-width="0.262624" mask="url(#path-44-outside-1_28_5356)"/>
<path fill-rule="evenodd" clip-rule="evenodd" d="M165.33 113.516L169.029 114.113L168.671 116.38L170.699 116.141L171.177 119.721L168.91 120.078L169.864 121.988L166.523 123.658L165.45 121.51L164.018 122.942L161.393 120.317L163.063 118.647L161.273 117.692L162.944 114.471L164.972 115.545L165.33 113.516Z" fill="#274C77"/>
<path fill-rule="evenodd" clip-rule="evenodd" d="M16.1853 115.186L19.884 114.59L20.242 116.857L22.0317 115.902L23.8215 119.124L21.7931 120.317L23.2248 121.749L20.7192 124.374L19.0489 122.703L18.0944 124.612L14.7535 123.061L15.8274 120.914L13.6797 120.675L14.2763 116.976L16.5433 117.215L16.1853 115.186Z" fill="#274C77"/>
<path d="M22.3931 131.771L30.9838 130.459L32.0576 132.726L20.484 134.038L19.4102 131.891L27.643 123.658L28.7168 125.925L22.2739 131.771H22.3931ZM23.8248 140.243L22.6317 138.333L29.552 134.038L30.7451 135.947L23.8248 140.243ZM31.3418 132.845C31.5803 132.726 31.9383 132.606 32.177 132.726C32.4155 132.845 32.7735 132.964 32.8928 133.322C33.1315 133.68 33.1315 133.919 33.1315 134.277C33.0122 134.635 32.8928 134.873 32.6542 134.993C32.4155 135.112 32.0576 135.231 31.819 135.112C31.4611 134.993 31.2224 134.873 31.1031 134.515C30.8644 134.157 30.8644 133.919 30.8644 133.561C30.9838 133.203 31.1031 132.964 31.3418 132.845ZM29.0747 144.18C29.3134 144.061 29.4327 143.822 29.3134 143.464C29.3134 143.106 29.194 142.748 28.9555 142.152C28.2395 140.362 28.3588 139.049 29.3134 138.333C29.9099 137.976 30.6259 137.856 31.3418 138.095C32.0576 138.333 32.7735 138.811 33.2507 139.646C33.8474 140.481 34.0859 141.317 34.0859 142.152C34.0859 142.987 33.728 143.583 33.0122 144.061L31.819 142.271C32.0576 142.152 32.177 141.913 32.2963 141.555C32.2963 141.317 32.2963 140.959 32.0576 140.601C31.819 140.243 31.5803 140.123 31.3418 140.004C31.1031 139.885 30.8644 140.004 30.6259 140.123C30.3872 140.243 30.3872 140.481 30.3872 140.72C30.3872 140.959 30.5066 141.436 30.7451 141.913C30.9838 142.39 31.1031 142.867 31.2224 143.225C31.5803 144.419 31.2224 145.373 30.3872 145.97C29.7907 146.447 29.0747 146.447 28.3588 146.208C27.643 145.97 26.9271 145.373 26.3304 144.538C25.9727 143.941 25.7339 143.345 25.6147 142.867C25.4952 142.271 25.4952 141.794 25.7339 141.317C25.9726 140.839 26.2112 140.481 26.5691 140.123L27.7623 141.794C27.4043 142.032 27.2851 142.271 27.2851 142.629C27.2851 142.987 27.4043 143.345 27.643 143.703C27.8816 144.061 28.1203 144.299 28.3588 144.299C28.5975 144.419 28.8362 144.299 29.0747 144.18ZM32.7735 149.788C33.0122 150.146 33.3702 150.265 33.728 150.265C34.0859 150.265 34.3246 150.265 34.6826 150.026L35.995 151.578C35.5178 151.935 35.0406 152.174 34.5632 152.174C33.9667 152.293 33.4894 152.174 32.8928 151.936C32.4155 151.697 31.9383 151.339 31.4611 150.862C30.7451 150.026 30.3872 149.072 30.5066 147.998C30.6259 147.044 31.2224 146.089 32.177 145.254L32.2963 145.135C33.2507 144.299 34.2054 143.941 35.2791 143.941C36.2338 143.941 37.1882 144.419 37.9042 145.254C38.6199 146.089 38.8586 146.805 38.8586 147.64C38.8586 148.475 38.3814 149.191 37.6654 149.907L36.353 148.356C36.711 148.117 36.8302 147.759 36.8302 147.401C36.8302 147.044 36.711 146.686 36.4723 146.328C36.1143 145.97 35.7563 145.731 35.2791 145.85C34.8019 145.85 34.3246 146.208 33.6087 146.686L33.4894 146.805C32.8928 147.401 32.4155 147.879 32.4155 148.237C32.2963 148.714 32.4155 149.072 32.7735 149.43V149.788ZM37.3075 151.1C37.9042 150.504 38.5006 150.146 39.0973 149.788C39.8131 149.549 40.4098 149.43 41.1255 149.669C41.8414 149.788 42.4381 150.146 43.0346 150.742C43.8698 151.458 44.2278 152.413 44.347 153.367C44.347 154.322 43.9891 155.276 43.2733 156.231L42.9153 156.708C42.0802 157.663 41.1255 158.14 40.0518 158.14C38.9779 158.259 38.0234 157.901 37.1882 157.066C36.353 156.231 35.8758 155.276 35.8758 154.322C35.8758 153.248 36.353 152.293 37.1882 151.339L37.3075 151.22V151.1ZM38.7394 152.771C38.2621 153.367 37.9042 153.844 37.7847 154.322C37.6654 154.799 37.9042 155.276 38.2619 155.634C38.6199 155.992 39.0973 156.112 39.5746 155.992C40.0518 155.873 40.6483 155.515 41.245 154.918C41.7222 154.322 42.0801 153.845 42.0801 153.367C42.1994 152.89 41.9609 152.413 41.6029 152.055C41.245 151.697 40.7677 151.578 40.2903 151.697C39.8131 151.816 39.2166 152.174 38.6199 152.771H38.7394ZM46.0174 161.123C46.1369 160.884 46.1369 160.646 46.0174 160.407C45.8982 160.168 45.6597 159.81 45.1822 159.333C43.8698 157.901 43.5118 156.589 44.2278 155.634C44.705 155.038 45.3017 154.68 46.0174 154.68C46.8526 154.68 47.5686 154.918 48.4038 155.515C49.239 156.112 49.8357 156.827 49.9549 157.543C50.1936 158.259 50.0742 158.975 49.5969 159.691L47.8073 158.378C48.0458 158.14 48.0458 157.901 48.0458 157.543C48.0458 157.305 47.8073 156.947 47.4493 156.708C47.0913 156.469 46.8526 156.35 46.6141 156.35C46.3754 156.35 46.1369 156.469 46.0174 156.708C45.8982 156.947 45.8982 157.185 45.8982 157.424C46.0174 157.663 46.2561 158.02 46.6141 158.378C46.9721 158.736 47.3301 159.214 47.5686 159.452C48.2845 160.526 48.2845 161.361 47.6878 162.316C47.2106 162.912 46.6141 163.27 45.8982 163.27C45.063 163.27 44.347 162.912 43.5118 162.316C42.9153 161.958 42.5574 161.481 42.1994 160.884C41.9609 160.407 41.7222 159.81 41.7222 159.333C41.7222 158.856 41.8414 158.378 42.1994 157.901L43.8698 159.094C43.6313 159.452 43.6313 159.691 43.7505 160.049C43.8698 160.407 44.1085 160.646 44.4665 160.884C44.8243 161.123 45.063 161.242 45.4209 161.242C45.6597 161.242 45.8982 161.123 46.0174 160.884V161.123ZM50.7901 167.088C49.7162 166.492 49.1197 165.657 48.7617 164.702C48.523 163.628 48.6425 162.674 49.239 161.6L49.3584 161.361C49.7162 160.646 50.3129 160.049 50.9094 159.691C51.5061 159.333 52.1025 159.094 52.8185 159.094C53.5344 159.094 54.1309 159.214 54.8469 159.572C55.8013 160.168 56.398 160.884 56.6365 161.839C56.8752 162.793 56.6365 163.748 56.04 164.941L55.5628 165.776L51.0288 163.151C50.7901 163.628 50.7901 164.106 50.9094 164.583C51.0288 165.06 51.3866 165.418 51.864 165.657C52.5798 166.015 53.2957 166.134 54.0117 165.895L54.3696 167.446C53.8924 167.685 53.2957 167.804 52.6992 167.685C52.1025 167.685 51.5061 167.446 50.9094 167.088H50.7901ZM53.8924 161.123C53.5344 160.884 53.1765 160.884 52.6992 161.004C52.3413 161.123 51.9833 161.361 51.6253 161.839L54.2502 163.39L54.3696 163.27C54.6081 162.793 54.7276 162.435 54.6081 162.077C54.4889 161.719 54.2502 161.481 53.8924 161.242V161.123ZM64.2728 166.85L68.21 163.032L70.4771 163.986L64.5113 169.236L63.0796 172.935L60.932 172.1L62.3636 168.401L61.6477 160.526L63.9148 161.481L64.1535 166.969L64.2728 166.85ZM71.4316 175.56C71.4316 175.321 71.4316 175.083 71.4316 174.844C70.7158 175.202 69.9999 175.321 69.1647 175.083C68.4488 174.844 67.8523 174.486 67.4943 173.889C67.1363 173.293 67.0171 172.696 67.2556 171.98C67.4943 171.145 67.9715 170.549 68.8067 170.31C69.5227 170.071 70.4771 170.071 71.6703 170.429L72.6248 170.668L72.744 170.191C72.8635 169.833 72.8635 169.475 72.744 169.236C72.6248 168.998 72.3862 168.759 71.9088 168.64C71.551 168.52 71.3123 168.52 70.9544 168.64C70.7158 168.759 70.4771 168.998 70.4771 169.236L68.3295 168.64C68.4488 168.162 68.6875 167.804 69.1647 167.566C69.5227 167.208 69.9999 167.088 70.5964 166.969C71.1931 166.85 71.7896 166.969 72.3862 167.208C73.3407 167.446 74.0566 167.924 74.4146 168.64C74.8918 169.356 74.8918 170.071 74.6531 170.907L73.5794 174.367C73.3407 175.083 73.3407 175.679 73.3407 176.156V176.276L71.1931 175.679L71.4316 175.56ZM70.1192 173.532C70.4771 173.651 70.7158 173.651 71.0736 173.532C71.4316 173.412 71.6703 173.293 71.7896 173.174L72.1475 171.861L71.3123 171.622C70.2384 171.265 69.6419 171.503 69.284 172.219V172.338C69.1647 172.577 69.284 172.816 69.4032 173.054C69.5227 173.293 69.7612 173.412 70.1192 173.532ZM80.619 171.026C80.3803 170.907 80.0223 170.907 79.903 170.787C79.0678 170.668 78.4711 170.787 78.1134 171.265L77.1587 176.514L75.0111 176.156L76.4428 168.043L78.4711 168.401L78.3519 169.356C78.9486 168.64 79.5451 168.401 80.3803 168.52C80.619 168.52 80.8575 168.64 80.9769 168.759L80.619 170.787V171.026ZM83.3631 169.236V170.191C83.9598 169.475 84.795 169.236 85.8687 169.356C86.7039 169.475 87.3006 169.713 87.7778 170.31C88.1358 170.907 88.255 171.622 88.255 172.696L87.7778 177.946L85.6302 177.708L86.1074 172.458C86.1074 171.98 86.1074 171.622 85.8687 171.384C85.6302 171.145 85.3915 171.026 84.9142 171.026C84.3177 171.026 83.8403 171.145 83.4825 171.622L82.8859 177.35L80.7382 177.111L81.5734 168.998L83.6018 169.236H83.3631ZM95.0561 166.73L98.7548 174.367L100.664 166.134L103.647 165.776L104.84 176.753L102.573 176.992L102.215 174.009L101.857 168.759L99.8286 177.23L98.2776 177.35L94.4594 169.475L95.2946 174.605L95.6526 177.588L93.3857 177.827L92.1925 166.85L95.1753 166.492L95.0561 166.73ZM111.283 175.083C111.164 174.963 111.044 174.725 110.925 174.486C110.567 175.202 109.97 175.679 109.135 175.918C108.3 176.156 107.704 176.037 106.988 175.799C106.391 175.441 105.914 174.963 105.794 174.247C105.556 173.412 105.675 172.696 106.272 172.1C106.749 171.503 107.584 171.026 108.777 170.668L109.732 170.429L109.612 169.952C109.493 169.594 109.374 169.356 109.135 169.117C108.897 168.998 108.539 168.878 108.181 168.998C107.823 169.117 107.584 169.236 107.465 169.475C107.346 169.713 107.226 169.952 107.346 170.191L105.198 170.787C105.078 170.31 105.078 169.833 105.317 169.356C105.556 168.878 105.794 168.52 106.272 168.162C106.749 167.804 107.226 167.566 107.942 167.327C108.897 167.088 109.732 167.088 110.448 167.446C111.164 167.804 111.641 168.401 111.88 169.236L112.834 172.696C113.073 173.412 113.311 174.009 113.55 174.367V174.486L111.402 175.083H111.283ZM109.135 174.128C109.493 174.009 109.732 173.889 109.97 173.651C110.209 173.412 110.328 173.174 110.448 172.935L110.09 171.622L109.254 171.861C108.181 172.1 107.704 172.696 107.823 173.412V173.532C107.942 173.77 108.061 174.009 108.3 174.128C108.539 174.247 108.777 174.247 109.135 174.128ZM113.788 165.895L114.146 166.73C114.504 165.895 115.101 165.18 115.936 164.941C116.771 164.702 117.487 164.702 117.965 164.941C118.561 165.299 119.038 165.895 119.396 166.85L121.186 171.861L119.158 172.577L117.368 167.685C117.249 167.208 117.01 166.969 116.771 166.85C116.533 166.73 116.175 166.73 115.698 166.85C115.101 167.088 114.743 167.446 114.624 168.043L116.652 173.532L114.624 174.247L111.88 166.492L113.788 165.776V165.895ZM126.913 168.282C126.675 169.117 126.197 169.713 125.362 170.191C124.527 170.549 123.811 170.668 123.214 170.429C122.618 170.191 122.021 169.594 121.663 168.759L119.277 163.867L121.305 162.912L123.572 167.685C123.93 168.401 124.527 168.64 125.123 168.282C125.839 167.924 126.197 167.446 126.197 166.969L123.692 161.719L125.72 160.765L129.299 168.162L127.391 169.117L127.033 168.401L126.913 168.282ZM131.089 166.85L127.629 161.242L126.555 161.839L125.72 160.526L126.794 159.93L126.436 159.333C125.959 158.498 125.839 157.782 125.959 157.066C126.078 156.35 126.675 155.754 127.391 155.276C127.629 155.157 127.987 154.918 128.464 154.799L129.299 156.231C129.18 156.231 128.941 156.35 128.703 156.47C127.987 156.947 127.868 157.424 128.226 158.14L128.584 158.736L130.015 157.901L130.851 159.333L129.419 160.168L132.879 165.776L130.97 166.969L131.089 166.85ZM139.203 161.481C138.964 161.361 138.845 161.242 138.606 161.004C138.487 161.839 138.129 162.435 137.413 162.912C136.697 163.39 136.101 163.509 135.385 163.509C134.669 163.39 134.072 163.151 133.714 162.554C133.237 161.839 133.117 161.123 133.356 160.407C133.595 159.691 134.191 158.975 135.265 158.259L136.101 157.663L135.862 157.305C135.623 156.947 135.385 156.827 135.146 156.708C134.907 156.589 134.549 156.708 134.191 156.947C133.833 157.185 133.714 157.424 133.595 157.663C133.475 157.901 133.595 158.14 133.714 158.378L131.925 159.691C131.686 159.333 131.567 158.856 131.567 158.378C131.567 157.901 131.686 157.424 132.044 156.827C132.402 156.35 132.76 155.873 133.356 155.515C134.191 154.918 135.027 154.68 135.743 154.799C136.578 154.918 137.174 155.276 137.652 155.992L139.68 158.856C140.157 159.452 140.515 159.93 140.992 160.168L141.112 160.288L139.322 161.6L139.203 161.481ZM136.816 161.242C137.055 161.004 137.294 160.884 137.413 160.526C137.532 160.288 137.652 159.93 137.532 159.691L136.697 158.498L135.981 158.975C135.027 159.572 134.788 160.288 135.146 160.884L135.265 161.004C135.385 161.242 135.623 161.361 135.862 161.361C136.101 161.361 136.339 161.361 136.697 161.123L136.816 161.242ZM143.498 155.754C143.856 155.515 143.975 155.157 144.095 154.918C144.095 154.56 144.095 154.322 143.856 153.964L145.407 152.651C145.765 153.129 146.004 153.606 146.004 154.083C146.123 154.68 146.004 155.157 145.765 155.754C145.526 156.231 145.168 156.708 144.691 157.185C143.737 157.901 142.901 158.259 141.828 158.14C140.873 158.021 139.919 157.424 139.083 156.47L138.964 156.35C138.129 155.396 137.771 154.441 137.771 153.367C137.771 152.413 138.248 151.458 139.203 150.742C140.038 150.026 140.754 149.788 141.708 149.788C142.543 149.788 143.259 150.265 143.975 150.981L142.424 152.293C142.186 151.935 141.828 151.816 141.47 151.697C141.112 151.697 140.754 151.816 140.396 152.055C140.038 152.413 139.799 152.771 139.919 153.248C139.919 153.725 140.276 154.202 140.754 154.918L140.873 155.038C141.47 155.634 141.947 156.112 142.305 156.231C142.782 156.35 143.14 156.231 143.617 155.873L143.498 155.754ZM142.066 144.896L143.617 146.208L144.572 145.135L145.765 146.208L144.81 147.282L147.793 150.026C148.032 150.265 148.271 150.384 148.39 150.384C148.509 150.384 148.748 150.265 148.986 150.026C149.106 149.907 149.225 149.669 149.344 149.549L150.538 150.623C150.299 150.981 150.06 151.458 149.822 151.697C148.748 152.89 147.674 152.89 146.481 151.816L143.259 148.833L142.424 149.669L141.231 148.595L142.066 147.759L140.515 146.447L141.947 144.777L142.066 144.896ZM153.64 145.373C153.878 146.208 153.64 147.044 153.043 147.759C152.566 148.475 151.969 148.833 151.254 148.953C150.538 149.072 149.822 148.714 149.106 148.237L144.81 145.015L146.123 143.225L150.418 146.447C151.134 146.924 151.731 146.924 152.089 146.328C152.566 145.731 152.685 145.135 152.327 144.657L147.674 141.197L148.986 139.407L155.549 144.299L154.356 145.97L153.64 145.493V145.373ZM153.998 135.47C153.759 135.709 153.64 135.947 153.52 136.067C153.043 136.783 152.924 137.379 153.282 137.856L157.696 140.839L156.503 142.629L149.702 137.976L150.896 136.305L151.731 136.783C151.373 135.947 151.373 135.231 151.85 134.635C151.969 134.396 152.089 134.277 152.327 134.157L153.998 135.351V135.47ZM161.395 134.873C160.799 135.947 160.083 136.663 159.009 136.902C158.054 137.26 156.981 137.14 155.907 136.544L155.668 136.425C154.952 136.067 154.356 135.589 153.998 134.993C153.52 134.396 153.401 133.8 153.282 133.084C153.282 132.368 153.401 131.771 153.759 131.055C154.236 130.101 155.072 129.504 155.907 129.266C156.861 129.027 157.816 129.266 159.009 129.862L159.844 130.339L157.339 134.993C157.816 135.231 158.293 135.231 158.77 134.993C159.248 134.873 159.606 134.515 159.844 134.038C160.202 133.322 160.321 132.606 159.964 131.891L161.515 131.533C161.753 132.01 161.873 132.606 161.873 133.203C161.873 133.8 161.634 134.396 161.276 134.993L161.395 134.873ZM155.31 131.891C155.072 132.249 155.072 132.606 155.191 133.084C155.31 133.442 155.668 133.8 156.026 134.157L157.458 131.533L157.339 131.413C156.861 131.175 156.503 131.175 156.145 131.175C155.788 131.294 155.549 131.533 155.31 131.891ZM159.248 124.016C159.128 124.254 159.009 124.493 158.89 124.732C158.532 125.448 158.651 126.163 159.009 126.521L164.02 128.55L163.185 130.578L155.549 127.476L156.265 125.567L157.219 125.925C156.742 125.209 156.623 124.493 156.861 123.777C156.981 123.538 157.1 123.3 157.219 123.18L159.128 124.016H159.248Z" fill="#274C77"/>
</g>
</g>
</g>
<defs>
<clipPath id="clip0_28_5356">
<rect width="185" height="186" fill="white"/>
</clipPath>
</defs>
</svg>
