<svg width="36" height="36" viewBox="0 0 36 36" fill="none" xmlns="http://www.w3.org/2000/svg">
<path d="M36 17.6949C36 27.4675 28.0777 35.3898 18.3051 35.3898C8.53245 35.3898 0.610169 27.4675 0.610169 17.6949C0.610169 7.92228 8.53245 0 18.3051 0C28.0777 0 36 7.92228 36 17.6949Z" fill="white"/>
<path fill-rule="evenodd" clip-rule="evenodd" d="M18 0C21.5601 0 25.0402 1.05568 28.0003 3.03355C30.9603 5.01141 33.2674 7.82263 34.6298 11.1117C35.9922 14.4008 36.3487 18.02 35.6541 21.5116C34.9596 25.0033 33.2453 28.2106 30.7279 30.7279C28.2106 33.2453 25.0033 34.9596 21.5116 35.6541C18.02 36.3487 14.4008 35.9922 11.1117 34.6298C7.82263 33.2674 5.01141 30.9603 3.03355 28.0003C1.05568 25.0402 0 21.5601 0 18C0 13.2261 1.89642 8.64773 5.27208 5.27208C8.64773 1.89642 13.2261 0 18 0ZM21.8496 10.7812C22.3594 10.2627 22.6787 9.84961 23.3144 10.4883L25.3652 12.5771C26.0361 13.2393 26.001 13.626 25.3652 14.2441L21.4834 18.1143L25.2187 21.8496C25.7373 22.3594 26.1504 22.6787 25.5117 23.3144L23.4228 25.3652C22.7607 26.0361 22.374 26.001 21.7588 25.3652L18 21.5977L14.2471 25.3506C13.6318 25.9805 13.2451 26.0156 12.583 25.3506L10.4941 23.2998C9.84961 22.6699 10.2627 22.3506 10.7871 21.835L14.5166 18.1143L10.6494 14.25C10.0195 13.6318 9.98437 13.2451 10.6494 12.583L12.7002 10.4941C13.3301 9.84961 13.6494 10.2627 14.165 10.7871L18 14.6309L21.8496 10.7812Z" fill="#CE0000"/>
</svg>
