<svg width="16" height="12" viewBox="0 0 16 12" fill="none" xmlns="http://www.w3.org/2000/svg">
<path d="M4.26963 11.3788C4.47884 11.588 4.81803 11.588 5.02724 11.3788L8.43651 7.96954C8.64572 7.76033 8.64572 7.42114 8.43651 7.21193C8.2273 7.00272 7.8881 7.00272 7.67889 7.21193L4.64844 10.2424L1.61798 7.21193C1.40877 7.00272 1.06957 7.00272 0.860365 7.21193C0.651156 7.42114 0.651156 7.76033 0.860365 7.96954L4.26963 11.3788ZM4.11272 1L4.11272 11L5.18415 11L5.18415 1L4.11272 1Z" fill="white"/>
<path d="M12.0507 0.621193C11.8415 0.411983 11.5023 0.411983 11.2931 0.621193L7.8838 4.03046C7.67459 4.23967 7.67459 4.57886 7.8838 4.78807C8.09301 4.99728 8.43221 4.99728 8.64142 4.78807L11.6719 1.75761L14.7023 4.78807C14.9115 4.99728 15.2507 4.99728 15.4599 4.78807C15.6692 4.57886 15.6692 4.23967 15.4599 4.03046L12.0507 0.621193ZM12.2076 11L12.2076 1L11.1362 1L11.1362 11L12.2076 11Z" fill="white"/>
</svg>
