<svg width="19" height="19" viewBox="0 0 19 19" fill="none" xmlns="http://www.w3.org/2000/svg">
<path d="M6.50476 0.0383301V1.86335H11.9798V0.0383301H13.8049V1.86335H17.4549C17.9589 1.86335 18.3674 2.2719 18.3674 2.77586V17.376C18.3674 17.88 17.9589 18.2885 17.4549 18.2885H1.0297C0.525737 18.2885 0.117188 17.88 0.117188 17.376V2.77586C0.117188 2.2719 0.525737 1.86335 1.0297 1.86335H4.67974V0.0383301H6.50476ZM16.5424 9.16344H1.94221V16.4635H16.5424V9.16344ZM5.59225 10.9885V12.8135H3.76723V10.9885H5.59225ZM10.1548 10.9885V12.8135H8.32979V10.9885H10.1548ZM14.7174 10.9885V12.8135H12.8923V10.9885H14.7174ZM4.67974 3.68837H1.94221V7.33842H16.5424V3.68837H13.8049V5.5134H11.9798V3.68837H6.50476V5.5134H4.67974V3.68837Z" fill="#274C77"/>
</svg>
