<svg width="13" height="14" viewBox="0 0 13 14" fill="none" xmlns="http://www.w3.org/2000/svg">
<path fill-rule="evenodd" clip-rule="evenodd" d="M2.11239 4.75101H10.9745C11.0457 4.74817 11.117 4.75387 11.1868 4.76799C11.3023 4.7934 11.4082 4.85079 11.4926 4.9336C11.5906 5.0276 11.6522 5.15317 11.6667 5.28817C11.6694 5.33921 11.6672 5.3904 11.6603 5.44104L10.9055 13.2596V13.2734V13.3032C10.9005 13.3354 10.8934 13.3673 10.8843 13.3987V13.4051C10.8442 13.5284 10.7669 13.6362 10.6628 13.7137C10.5588 13.7911 10.4332 13.8342 10.3036 13.8371H2.76527C2.72046 13.835 2.676 13.8282 2.63257 13.817C2.5899 13.8042 2.54864 13.7871 2.50943 13.766C2.41689 13.7128 2.33874 13.6378 2.28176 13.5475C2.22478 13.4572 2.1907 13.3544 2.18246 13.2479L1.43935 5.44635C1.43087 5.38801 1.42873 5.32892 1.43298 5.27012C1.44783 5.13699 1.50909 5.01334 1.60602 4.92086C1.69384 4.83549 1.80442 4.77726 1.92449 4.75313C1.98721 4.74217 2.05087 4.73755 2.11452 4.73933L2.11239 4.75101ZM1.5264 1.74035H4.86721V1.4431C4.86668 1.43356 4.86668 1.42399 4.86721 1.41444C4.8739 1.25444 4.94061 1.10283 5.05405 0.989807C5.17312 0.872265 5.33366 0.806295 5.50098 0.806152H7.55727H7.58912C7.75247 0.81433 7.90641 0.88503 8.01906 1.00361C8.13171 1.12218 8.19443 1.27955 8.19422 1.4431V1.74035H11.5913H11.6327C11.7529 1.75018 11.8655 1.80324 11.9497 1.8897C12.0338 1.97617 12.0837 2.09018 12.0902 2.21063C12.0902 2.22974 12.0902 2.2446 12.0902 2.26371V3.31044C12.0902 3.38336 12.0613 3.45329 12.0097 3.50485C11.9582 3.55642 11.8882 3.58539 11.8153 3.58539H1.20155C1.12918 3.58539 1.05972 3.55686 1.00825 3.50598C0.956777 3.45511 0.927439 3.38599 0.926601 3.31362V2.24248C0.925508 2.23154 0.925508 2.22051 0.926601 2.20957C0.933874 2.09778 0.978397 1.99166 1.05306 1.90814C1.12772 1.82463 1.22822 1.76854 1.3385 1.74884C1.40077 1.74067 1.46364 1.73783 1.5264 1.74035ZM5.99568 7.33491C6.00849 7.21023 6.06709 7.09474 6.16014 7.01076C6.25318 6.92679 6.37406 6.88031 6.4994 6.88031C6.62474 6.88031 6.74562 6.92679 6.83866 7.01076C6.93171 7.09474 6.99031 7.21023 7.00312 7.33491V11.2628C6.99031 11.3875 6.93171 11.503 6.83866 11.5869C6.74562 11.6709 6.62474 11.7174 6.4994 11.7174C6.37406 11.7174 6.25318 11.6709 6.16014 11.5869C6.06709 11.503 6.00849 11.3875 5.99568 11.2628V7.33491ZM8.51482 7.31368C8.52875 7.18643 8.59229 7.0698 8.69166 6.98911C8.79103 6.90842 8.91822 6.87018 9.04562 6.88267C9.1082 6.88211 9.17028 6.89394 9.22827 6.91747C9.28626 6.941 9.33903 6.97577 9.38353 7.01978C9.42803 7.06378 9.46339 7.11616 9.48756 7.17389C9.51174 7.23162 9.52425 7.29356 9.52439 7.35614L9.31207 11.284C9.29842 11.4114 9.23495 11.5282 9.13551 11.6089C9.03607 11.6897 8.90873 11.7278 8.78128 11.715C8.7187 11.7156 8.65662 11.7038 8.59863 11.6802C8.54063 11.6567 8.48787 11.6219 8.44337 11.5779C8.39887 11.5339 8.36351 11.4815 8.33933 11.4238C8.31516 11.3661 8.30264 11.3041 8.30251 11.2415L8.51482 7.31368ZM3.58057 7.35614C3.58056 7.29361 3.59295 7.23169 3.61701 7.17397C3.64107 7.11625 3.67632 7.06386 3.72074 7.01984C3.76516 6.97582 3.81785 6.94103 3.87579 6.91749C3.93372 6.89395 3.99575 6.88211 4.05828 6.88267C4.18568 6.87018 4.31286 6.90842 4.41224 6.98911C4.51161 7.0698 4.57515 7.18643 4.58908 7.31368L4.80139 11.2415C4.80125 11.3041 4.78874 11.3661 4.76456 11.4238C4.74039 11.4815 4.70503 11.5339 4.66053 11.5779C4.61603 11.6219 4.56326 11.6567 4.50527 11.6802C4.44728 11.7038 4.3852 11.7156 4.32262 11.715C4.19516 11.7278 4.06783 11.6897 3.96839 11.6089C3.86895 11.5282 3.80548 11.4114 3.79182 11.284L3.57951 7.35614H3.58057Z" fill="#CE0000"/>
</svg>
