<svg width="24" height="23" viewBox="0 0 24 23" fill="none" xmlns="http://www.w3.org/2000/svg">
<g clip-path="url(#clip0_20_3168)">
<path d="M0.45956 16.8676L8.8456 2.03778L8.8788 1.98384C9.22426 1.40471 9.69121 0.911341 10.2459 0.539412C10.7773 0.189911 11.3952 0.00278201 12.027 0C12.6583 0.000101806 13.2761 0.186718 13.8061 0.537414C14.362 0.910385 14.8291 1.40599 15.1732 1.98783C15.1986 2.02979 15.222 2.07174 15.2435 2.11569L23.4928 16.7677L23.5378 16.8556C23.8482 17.4869 24.0069 18.1848 24.0006 18.8914C23.9975 19.4747 23.8525 20.048 23.5788 20.5596C23.2695 21.1311 22.7965 21.592 22.2234 21.8802L22.1101 21.9321C21.5492 22.18 20.9418 22.2987 20.331 22.2797H3.44174C3.39682 22.2797 3.35581 22.2797 3.31284 22.2797C2.89919 22.2763 2.48934 22.1986 2.102 22.05C1.4866 21.8114 0.957611 21.3853 0.586503 20.8293C0.213614 20.2631 0.0100254 19.598 0.000613137 18.9154C-0.00902821 18.3185 0.0951177 17.7254 0.307229 17.1693C0.347085 17.0637 0.397477 16.9626 0.457607 16.8676H0.45956Z" fill="#B71616"/>
<path fill-rule="evenodd" clip-rule="evenodd" d="M1.75829 17.7326L10.1853 2.82884C11.2067 1.18064 12.8277 1.13868 13.8706 2.82884L22.159 17.5528C22.8191 18.9133 22.491 20.7493 20.3349 20.7034H3.44175C2.02194 20.7393 1.09819 19.4667 1.75439 17.7326H1.75829Z" fill="#E21B1B"/>
<path d="M11.2425 16.5225C11.4249 16.3377 11.666 16.2258 11.9221 16.2069C12.0814 16.1958 12.2412 16.2197 12.3908 16.2768C12.5373 16.3354 12.6703 16.4246 12.7814 16.5385C12.9676 16.7277 13.0801 16.9798 13.0978 17.2477C13.1032 17.3413 13.098 17.4351 13.0822 17.5274C13.038 17.7908 12.9021 18.029 12.6996 18.1979C12.4972 18.3668 12.2418 18.4551 11.9807 18.4464C11.8275 18.4435 11.6765 18.4082 11.5374 18.3425C11.2878 18.2251 11.091 18.0152 10.9866 17.7552C10.9543 17.6736 10.9313 17.5885 10.9183 17.5015C10.9048 17.4149 10.9008 17.3271 10.9066 17.2397C10.9214 17.1011 10.959 16.966 11.0179 16.8402C11.069 16.7214 11.1442 16.6152 11.2386 16.5285L11.2425 16.5225ZM12.8361 14.4767C12.797 15.4337 11.2132 15.4357 11.1761 14.4767C11.0159 12.8365 10.6058 8.60515 10.6195 7.06482C10.6331 6.58934 11.0101 6.30765 11.51 6.19977C11.8324 6.13426 12.1642 6.13426 12.4865 6.19977C12.9962 6.31164 13.3946 6.59933 13.3946 7.0868V7.13475L12.8361 14.4767Z" fill="white"/>
</g>
<defs>
<clipPath id="clip0_20_3168">
<rect width="24" height="22.2857" fill="white"/>
</clipPath>
</defs>
</svg>
